SplineFontDB: 3.0
FontName: Ski
FullName: Ski
FamilyName: Ski
Weight: Medium
Copyright: Created by yves,,, with FontForge 2.0 (http://fontforge.sf.net)
Version: 001.000
ItalicAngle: 0
UnderlinePosition: -26
UnderlineWidth: 12
Ascent: 205
Descent: 51
InvalidEm: 0
sfntRevision: 0x00010000
LayerCount: 2
Layer: 0 1 "Arri+AOgA-re" 1
Layer: 1 1 "Avant" 0
XUID: [1021 405 2095639129 15341618]
FSType: 8
OS2Version: 4
OS2_WeightWidthSlopeOnly: 0
OS2_UseTypoMetrics: 1
CreationTime: 1486646504
ModificationTime: 1653836473
PfmFamily: 17
TTFWeight: 500
TTFWidth: 5
LineGap: 6
VLineGap: 0
Panose: 2 0 6 9 0 0 0 0 0 0
OS2TypoAscent: 205
OS2TypoAOffset: 0
OS2TypoDescent: -51
OS2TypoDOffset: 0
OS2TypoLinegap: 6
OS2WinAscent: 206
OS2WinAOffset: 0
OS2WinDescent: 52
OS2WinDOffset: 0
HheadAscent: 206
HheadAOffset: 0
HheadDescent: -52
HheadDOffset: 0
OS2SubXSize: 166
OS2SubYSize: 179
OS2SubXOff: 0
OS2SubYOff: 35
OS2SupXSize: 166
OS2SupYSize: 179
OS2SupXOff: 0
OS2SupYOff: 122
OS2StrikeYSize: 12
OS2StrikeYPos: 66
OS2Vendor: 'PfEd'
OS2CodePages: 00000001.00000000
OS2UnicodeRanges: 00000001.00000000.00000000.00000000
DEI: 91125
TtTable: prep
PUSHW_1
 511
SCANCTRL
PUSHB_1
 1
SCANTYPE
SVTCA[y-axis]
MPPEM
PUSHB_1
 8
LT
IF
PUSHB_2
 1
 1
INSTCTRL
EIF
PUSHB_2
 70
 6
CALL
IF
POP
PUSHB_1
 16
EIF
MPPEM
PUSHB_1
 20
GT
IF
POP
PUSHB_1
 128
EIF
SCVTCI
PUSHB_1
 20
CALL
EndTTInstrs
TtTable: fpgm
PUSHB_1
 0
FDEF
PUSHB_1
 0
SZP0
MPPEM
PUSHB_1
 42
LT
IF
PUSHB_1
 74
SROUND
EIF
PUSHB_1
 0
SWAP
MIAP[rnd]
RTG
PUSHB_1
 6
CALL
IF
RTDG
EIF
MPPEM
PUSHB_1
 42
LT
IF
RDTG
EIF
DUP
MDRP[rp0,rnd,grey]
PUSHB_1
 1
SZP0
MDAP[no-rnd]
RTG
ENDF
PUSHB_1
 1
FDEF
DUP
MDRP[rp0,min,white]
PUSHB_1
 12
CALL
ENDF
PUSHB_1
 2
FDEF
MPPEM
GT
IF
RCVT
SWAP
EIF
POP
ENDF
PUSHB_1
 3
FDEF
ROUND[Black]
RTG
DUP
PUSHB_1
 64
LT
IF
POP
PUSHB_1
 64
EIF
ENDF
PUSHB_1
 4
FDEF
PUSHB_1
 6
CALL
IF
POP
SWAP
POP
ROFF
IF
MDRP[rp0,min,rnd,black]
ELSE
MDRP[min,rnd,black]
EIF
ELSE
MPPEM
GT
IF
IF
MIRP[rp0,min,rnd,black]
ELSE
MIRP[min,rnd,black]
EIF
ELSE
SWAP
POP

StartChar: .notdef
Encoding: 65536 -1 0
Width: 256
Flags: W
LayerCount: 2
Fore
SplineSet
8 0 m 1,0,-1
 8 170 l 1,1,-1
 73 170 l 1,2,-1
 73 0 l 1,3,-1
 8 0 l 1,0,-1
16 8 m 1,4,-1
 65 8 l 1,5,-1
 65 162 l 1,6,-1
 16 162 l 1,7,-1
 16 8 l 1,4,-1
EndSplineSet
EndChar

StartChar: A
Encoding: 65 65 4
Width: 256
Flags: W
LayerCount: 2
Fore
SplineSet
208 -52 m 1024,0,-1
0 157 m 2,1,-1
 0 -3 l 2,2,3
 0 -39 0 -39 6 -44.5 c 128,-1,4
 12 -50 12 -50 48 -50 c 2,5,-1
 208 -50 l 2,6,7
 244 -50 244 -50 250 -44.5 c 128,-1,8
 256 -39 256 -39 256 -3 c 2,9,-1
 256 157 l 2,10,11
 256 193 256 193 250 198.5 c 128,-1,12
 244 204 244 204 208 204 c 2,13,-1
 48 204 l 2,14,15
 12 204 12 204 6 198.5 c 128,-1,16
 0 193 0 193 0 157 c 2,1,-1
207.5 100 m 128,-1,18
 199 100 199 100 193 106 c 128,-1,19
 187 112 187 112 187 120.5 c 128,-1,20
 187 129 187 129 193 135 c 128,-1,21
 199 141 199 141 207.5 141 c 128,-1,22
 216 141 216 141 222 135 c 128,-1,23
 228 129 228 129 228 120.5 c 128,-1,24
 228 112 228 112 222 106 c 128,-1,17
 216 100 216 100 207.5 100 c 128,-1,18
186 -30 m 2,25,-1
 3 76 l 1,26,-1
 13 88 l 1,27,-1
 193 -18 l 2,28,29
 202 -23 202 -23 207 -14 c 1,30,-1
 213 -18 l 1,31,32
 209 -25 209 -25 200.5 -29 c 128,-1,33
 192 -33 192 -33 186 -30 c 2,25,-1
124 165 m 2,34,-1
 168 139 l 2,35,36
 175 134 175 134 176 126 c 2,37,-1
 180 80 l 1,38,-1
 211 62 l 2,39,40
 218 57 218 57 214 49.5 c 128,-1,41
 210 42 210 42 202 46 c 2,42,-1
 163 69 l 2,43,44
 158 72 158 72 157 78 c 2,45,-1
 154 104 l 1,46,-1
 124 122 l 1,47,-1
 132 95 l 1,48,49
 132 95 132 95 131 89.5 c 128,-1,50
 130 84 130 84 123 81 c 2,51,-1
 74 65 l 2,52,53
 70 64 70 64 69 64 c 0,54,55
 55 66 55 66 57 78 c 0,56,57
 58 86 58 86 65 89 c 2,58,-1
 102 101 l 1,59,-1
 90 140 l 2,60,61
 86 150 86 150 93 159 c 0,62,63
 98 167 98 167 107 168.5 c 128,-1,64
 116 170 116 170 124 165 c 2,34,-1
EndSplineSet
EndChar

StartChar: B
Encoding: 66 66 5
Width: 256
Flags: W
LayerCount: 2
Fore
SplineSet
236 163 m 5,0,-1
 241 161 l 5,1,-1
 186 -10 l 5,2,-1
 180 -8 l 5,3,-1
 236 163 l 5,0,-1
169 170 m 132,-1,5
 169 191 169 191 189.5 191 c 132,-1,6
 210 191 210 191 210 170 c 132,-1,7
 210 149 210 149 189.5 149 c 132,-1,4
 169 149 169 149 169 170 c 132,-1,5
218 -20 m 1028,8,9
145 94 m 1028,10,-1
218 -20 m 5,11,-1
 217 -20 l 6,12,13
 218 -20 218 -20 218 -20 c 5,11,-1
157 158 m 4,14,15
 161 158 161 158 166 157 c 5,16,17
 174 153 174 153 182.5 147.5 c 132,-1,18
 191 142 191 142 195 138 c 6,19,-1
 199 135 l 5,20,-1
 225 156 l 5,21,-1
 228 145 l 5,22,23
 203 123 203 123 199 121 c 5,24,25
 195 121 195 121 187.5 125 c 132,-1,26
 180 129 180 129 175 136 c 5,27,28
 173 124 173 124 168 117 c 132,-1,29
 163 110 163 110 156 104.5 c 132,-1,30
 149 99 149 99 146 94 c 5,31,32
 179 68 179 68 181 56 c 5,33,-1
 158 -7 l 5,34,-1
 145 -7 l 5,35,-1
 155 54 l 5,36,-1
 127 80 l 5,37,38
 124 76 124 76 120.5 69 c 132,-1,39
 117 62 117 62 111.5 56.5 c 132,-1,40
 106 51 106 51 96 45 c 5,41,-1
 58 32 l 5,42,-1
 127 -19 l 5,43,-1
 217 -19 l 5,44,-1
 217 -19 l 5,45,46
 220 -19 220 -19 226 -9 c 5,47,-1
 233 -11 l 5,48,49
 227 -28 227 -28 217 -28 c 6,50,-1
 59 -28 l 5,51,-1
 59 -19 l 5,52,-1
 113 -19 l 5,53,-1
 7 59 l 5,54,-1
 12 66 l 5,55,-1
 44 43 l 5,56,-1
 90 62 l 5,57,58
 101 91 101 91 111 106 c 5,59,-1
 125 118 l 5,60,-1
 132 124 l 5,61,-1
 145 141 l 5,62,-1
 129 140 l 5,63,-1
 121 133 l 5,64,-1
 110 122 l 5,65,-1
 110 118 l 5,66,-1
 6 118 l 5,67,-1
 6 124 l 5,68,-1
 99 124 l 5,69,-1
 104 131 l 5,70,-1
 126 152 l 5,71,72
 149 158 149 158 157 158 c 4,14,15
0 157 m 2,73,-1
 0 -3 l 2,74,75
 0 -39 0 -39 6 -45 c 128,-1,76
 12 -51 12 -51 48 -51 c 2,77,-1
 208 -51 l 2,78,79
 244 -51 244 -51 250 -45 c 128,-1,80
 256 -39 256 -39 256 -3 c 2,81,-1
 256 157 l 2,82,83
 256 193 256 193 250 199 c 128,-1,84
 244 205 244 205 208 205 c 2,85,-1
 48 205 l 2,86,87
 12 205 12 205 6 199 c 128,-1,88
 0 193 0 193 0 157 c 2,73,-1
EndSplineSet
EndChar

StartChar: C
Encoding: 67 67 6
Width: 256
Flags: W
LayerCount: 2
Fore
SplineSet
60 -17 m 1028,0,-1
81 -26 m 1028,1,-1
33 142 m 1028,2,-1
22 171 m 1028,3,-1
8 146 m 1028,4,-1
21 170 m 4,5,6
 12 172 12 172 8.5 162.5 c 132,-1,7
 5 153 5 153 9 146 c 5,8,9
 16 122 16 122 25 94.5 c 132,-1,10
 34 67 34 67 44.5 34.5 c 132,-1,11
 55 2 55 2 61 -16 c 4,12,13
 62 -20 62 -20 64 -27 c 132,-1,14
 66 -34 66 -34 68 -39 c 132,-1,15
 70 -44 70 -44 73 -45 c 4,16,17
 84 -46 84 -46 84.5 -40 c 132,-1,18
 85 -34 85 -34 81 -26 c 5,19,20
 76 -8 76 -8 64.5 26.5 c 132,-1,21
 53 61 53 61 45 88.5 c 132,-1,22
 37 116 37 116 33 142 c 4,23,24
 32 145 32 145 31 152 c 132,-1,25
 30 159 30 159 28 163.5 c 132,-1,26
 26 168 26 168 21 170 c 4,5,6
224 142 m 5,27,-1
 224 142 l 5,28,-1
 224 142 l 5,27,-1
197 -17 m 1028,29,-1
236 170 m 4,30,31
 231 168 231 168 229 163.5 c 132,-1,32
 227 159 227 159 226.5 152 c 132,-1,33
 226 145 226 145 225 142 c 4,34,35
 220 116 220 116 212.5 88.5 c 132,-1,36
 205 61 205 61 193.5 26.5 c 132,-1,37
 182 -8 182 -8 177 -26 c 5,38,39
 172 -34 172 -34 173 -40 c 132,-1,40
 174 -46 174 -46 184 -45 c 4,41,42
 188 -44 188 -44 190 -39 c 132,-1,43
 192 -34 192 -34 193.5 -27 c 132,-1,44
 195 -20 195 -20 197 -16 c 4,45,46
 203 2 203 2 213.5 34.5 c 132,-1,47
 224 67 224 67 232.5 94.5 c 132,-1,48
 241 122 241 122 249 146 c 4,49,50
 252 153 252 153 249 162.5 c 132,-1,51
 246 172 246 172 236 170 c 4,30,31
129 169 m 1028,52,-1
129 168 m 1028,53,-1
118 61 m 1028,54,-1
163 92 m 1028,55,-1
118 61 m 1028,56,-1
163 92 m 1028,57,-1
118 61 m 1028,58,-1
163 92 m 1028,59,-1
123 169 m 4,60,61
 97 167 97 167 80 148.5 c 132,-1,62
 63 130 63 130 63 105 c 4,63,64
 63 75 63 75 83 57.5 c 132,-1,65
 103 40 103 40 127 40 c 132,-1,66
 151 40 151 40 171 57.5 c 132,-1,67
 191 75 191 75 191 105 c 4,68,69
 191 131 191 131 173 149.5 c 132,-1,70
 155 168 155 168 129 169 c 4,71,72
 126 169 126 169 123 169 c 4,60,61
102 136 m 5,73,74
 102 136 102 136 103 136 c 4,75,76
 107 137 107 137 110.5 133 c 132,-1,77
 114 129 114 129 114 123 c 4,78,79
 114 109 114 109 104 109 c 132,-1,80
 94 109 94 109 94 123 c 4,81,82
 94 134 94 134 102 136 c 5,73,74
150 136 m 4,83,84
 151 136 151 136 152 136 c 4,85,86
 156 137 156 137 159 133 c 132,-1,87
 162 129 162 129 162 123 c 4,88,89
 162 114 162 114 157 110.5 c 132,-1,90
 152 107 152 107 147.5 110.5 c 132,-1,91
 143 114 143 114 143 123 c 4,92,93
 142 134 142 134 150 136 c 4,83,84
92 93 m 5,94,-1
 162 93 l 5,95,96
 152 60 152 60 126.5 60 c 132,-1,97
 101 60 101 60 92 93 c 5,94,-1
0 157 m 6,98,99
 0 193 0 193 6 199 c 128,-1,100
 12 205 12 205 48 205 c 2,101,-1
 208 205 l 2,102,103
 244 205 244 205 250 199 c 128,-1,104
 256 193 256 193 256 157 c 6,105,-1
 256 -3 l 6,106,107
 256 -39 256 -39 250 -45 c 132,-1,108
 244 -51 244 -51 208 -51 c 2,109,-1
 48 -51 l 2,110,111
 12 -51 12 -51 6 -45 c 132,-1,112
 0 -39 0 -39 0 -3 c 6,113,-1
 0 157 l 6,98,99
EndSplineSet
EndChar

StartChar: D
Encoding: 68 68 7
Width: 256
Flags: W
LayerCount: 2
Fore
SplineSet
149 123 m 4,0,1
 146 120 146 120 113.832 119.17 c 4,2,3
 112.388 119.133 112.388 119.133 110.915 119.133 c 4,4,5
 103.805 119.133 103.805 119.133 96 120 c 4,6,7
 95 120 95 120 81 120 c 4,8,9
 76 120 76 120 71 120 c 4,10,11
 69 120 69 120 65 122 c 4,12,13
 63 123 63 123 63 125 c 132,-1,14
 63 127 63 127 64 127 c 4,15,16
 81 127 81 127 123 135 c 4,17,18
 166.2 143.1 166.2 143.1 175.38 143.1 c 4,19,20
 176.4 143.1 176.4 143.1 177 143 c 12,21,22
 187 141 187 141 190 137 c 4,23,24
 192 134 192 134 192 122 c 4,25,26
 192 115 192 115 174 98 c 5,27,-1
 150 76 l 5,28,-1
 163 59 l 6,29,30
 176 43 176 43 176 39 c 4,31,32
 176 33 176 33 176 33 c 132,-1,33
 176 33 176 33 176 25 c 4,34,35
 175 19 175 19 175 16 c 4,36,37
 175 15 175 15 173 -5 c 4,38,39
 172 -15 172 -15 172 -23 c 4,40,41
 172 -24 172 -24 177 -24 c 4,42,43
 181 -24 181 -24 186 -28 c 4,44,45
 190 -31 190 -31 189 -34 c 5,46,-1
 192 -34 l 6,47,48
 198 -34 198 -34 199 -24 c 5,49,-1
 203 -24 l 5,50,51
 203.2 -25.2 203.2 -25.2 203.2 -26.4 c 4,52,53
 203.2 -31.2 203.2 -31.2 200 -36 c 132,-1,54
 197 -41 197 -41 190 -41 c 132,-1,55
 183 -41 183 -41 168 -41 c 4,56,57
 157 -41 157 -41 146 -41 c 5,58,-1
 146 -34 l 5,59,-1
 159 -34 l 5,60,61
 156 -17 156 -17 156 -2.5 c 132,-1,62
 156 12 156 12 159 24 c 4,63,64
 160 28 160 28 158 30 c 6,65,-1
 139 50 l 6,66,67
 131 59 131 59 128 62 c 5,68,-1
 97 25 l 5,69,70
 52 -3 52 -3 50 -3 c 4,71,72
 49 -3 49 -3 52 -7 c 4,73,74
 56 -12 56 -12 57 -16 c 4,75,76
 57.1429 -16.7143 57.1429 -16.7143 57.1429 -17.4082 c 4,77,78
 57.1429 -21.5714 57.1429 -21.5714 52 -25 c 5,79,-1
 54 -28 l 5,80,81
 55.7143 -28.5714 55.7143 -28.5714 57.4286 -28.5714 c 4,82,-1
 66 -25 l 5,83,-1
 69 -29 l 5,84,85
 63.75 -35.125 63.75 -35.125 58.5 -35.125 c 4,86,-1
 57 -35 l 4,87,88
 49 -34 49 -34 45 -28 c 6,89,-1
 22 6 l 5,90,-1
 27 10 l 5,91,-1
 33 0 l 5,92,93
 47 16 47 16 86 40 c 5,94,95
 87 41 87 41 88 48 c 4,96,97
 90 55 90 55 90 56 c 4,98,-1
 92 62 l 4,99,100
 94 68 94 68 95 69 c 4,101,102
 97 71 97 71 97 75 c 4,103,104
 97 77 97 77 101 81 c 4,105,106
 102 83 102 83 105 86 c 4,107,108
 111 92 111 92 111 92 c 4,109,110
 114 94 114 94 118 97 c 132,-1,111
 122 100 122 100 126 103 c 5,112,113
 139 112 139 112 149 123 c 4,0,1
229.322 157.037 m 132,-1,115
 229.322 148.521 229.322 148.521 223.295 142.493 c 132,-1,116
 217.268 136.466 217.268 136.466 208.751 136.466 c 132,-1,117
 200.234 136.466 200.234 136.466 194.207 142.493 c 132,-1,118
 188.18 148.521 188.18 148.521 188.18 157.037 c 132,-1,119
 188.18 165.554 188.18 165.554 194.207 171.581 c 132,-1,120
 200.234 177.608 200.234 177.608 208.751 177.608 c 132,-1,121
 217.268 177.608 217.268 177.608 223.295 171.581 c 132,-1,114
 229.322 165.554 229.322 165.554 229.322 157.037 c 132,-1,115
0 161 m 2,122,-1
 0 -7 l 2,123,124
 0 -40 0 -40 5.5 -45.5 c 128,-1,125
 11 -51 11 -51 44 -51 c 2,126,-1
 212 -51 l 2,127,128
 245 -51 245 -51 250.5 -45.5 c 128,-1,129
 256 -40 256 -40 256 -7 c 2,130,-1
 256 161 l 2,131,132
 256 194 256 194 250.5 199.5 c 128,-1,133
 245 205 245 205 212 205 c 2,134,-1
 44 205 l 2,135,136
 11 205 11 205 5.5 199.5 c 128,-1,137
 0 194 0 194 0 161 c 2,122,-1
EndSplineSet
EndChar

StartChar: E
Encoding: 69 69 8
Width: 256
Flags: W
LayerCount: 2
Fore
SplineSet
235 90 m 2,0,-1
 36 -36 l 1,1,-1
 29 -26 l 1,2,-1
 226 98 l 2,3,4
 235 104 235 104 229 113 c 1,5,-1
 240 119 l 1,6,7
 244 113 244 113 242.5 103.5 c 128,-1,8
 241 94 241 94 235 90 c 2,0,-1
104 80 m 1,9,-1
 67 7 l 2,10,11
 62 -3 62 -3 52 2 c 128,-1,12
 42 7 42 7 47 18 c 2,13,-1
 96 114 l 2,14,15
 98 118 98 118 102 121 c 2,16,-1
 149 151 l 2,17,18
 155 155 155 155 162.5 153.5 c 128,-1,19
 170 152 170 152 174 146 c 128,-1,20
 178 140 178 140 176 132.5 c 128,-1,21
 174 125 174 125 168 121 c 2,22,-1
 104 80 l 1,9,-1
182 152 m 1,23,24
 182 152 182 152 182 152 c 1,25,26
 174 152 174 152 168 158 c 128,-1,27
 162 164 162 164 162 172.5 c 128,-1,28
 162 181 162 181 168 187 c 128,-1,29
 174 193 174 193 182.5 193 c 128,-1,30
 191 193 191 193 197 187 c 128,-1,31
 203 181 203 181 203 172.5 c 128,-1,32
 203 164 203 164 197 158 c 128,-1,33
 191 152 191 152 182 152 c 1,23,24
0 157 m 2,34,-1
 0 -3 l 2,35,36
 0 -39 0 -39 6 -45 c 128,-1,37
 12 -51 12 -51 48 -51 c 2,38,-1
 208 -51 l 2,39,40
 244 -51 244 -51 250 -45 c 128,-1,41
 256 -39 256 -39 256 -3 c 2,42,-1
 256 157 l 2,43,44
 256 193 256 193 250 199 c 128,-1,45
 244 205 244 205 208 205 c 2,46,-1
 48 205 l 2,47,48
 12 205 12 205 6 199 c 128,-1,49
 0 193 0 193 0 157 c 2,34,-1
EndSplineSet
EndChar

StartChar: F
Encoding: 70 70 9
Width: 256
Flags: W
LayerCount: 2
Fore
SplineSet
0 157 m 2,0,1
 0 157 0 157 0 -3 c 0,2,3
 0 -39 0 -39 6 -45 c 128,-1,4
 12 -51 12 -51 48 -51 c 2,5,-1
 208 -51 l 2,6,7
 244 -51 244 -51 250 -45 c 128,-1,8
 256 -39 256 -39 256 -3 c 2,9,-1
 256 157 l 2,10,11
 256 193 256 193 250 199 c 128,-1,12
 244 205 244 205 208 205 c 2,13,-1
 48 205 l 2,14,15
 12 205 12 205 6 199 c 128,-1,16
 0 193 0 193 0 157 c 2,0,1
103.5 196 m 128,-1,18
 110 196 110 196 114.5 191.5 c 128,-1,19
 119 187 119 187 119 180.5 c 128,-1,20
 119 174 119 174 114.5 169 c 128,-1,21
 110 164 110 164 103.5 164 c 128,-1,22
 97 164 97 164 92 169 c 128,-1,23
 87 174 87 174 87 180.5 c 128,-1,24
 87 187 87 187 92 191.5 c 128,-1,17
 97 196 97 196 103.5 196 c 128,-1,18
131 165 m 1,25,-1
 176 70 l 2,26,27
 176 69 176 69 177 67.5 c 128,-1,28
 178 66 178 66 179 62 c 128,-1,29
 180 58 180 58 178 56 c 1,30,31
 214 76 214 76 233 88 c 0,32,33
 237 90 237 90 238.5 92 c 128,-1,34
 240 94 240 94 241 96 c 1,35,-1
 241 97 l 1,36,37
 249 85 249 85 240 80 c 0,38,39
 159 35 159 35 119 13 c 1,40,-1
 122 -1 l 1,41,-1
 117 -2 l 1,42,-1
 115 11 l 1,43,-1
 94 -1 l 1,44,-1
 91 7 l 1,45,-1
 29 -28 l 1,46,-1
 26 -19 l 1,47,48
 42 -11 42 -11 64 2 c 1,49,-1
 53 16 l 1,50,-1
 79 54 l 1,51,-1
 80 86 l 1,52,53
 76 88 76 88 75 91 c 1,54,-1
 75 103 l 1,55,-1
 72 96 l 1,56,-1
 53 95 l 1,57,58
 52 108 52 108 52.5 132 c 128,-1,59
 53 156 53 156 55 160 c 0,60,61
 57 162 57 162 62.5 162.5 c 128,-1,62
 68 163 68 163 72 163 c 2,63,-1
 77 162 l 1,64,-1
 79 151 l 1,65,66
 80 152 80 152 81 154 c 128,-1,67
 82 156 82 156 85.5 159 c 128,-1,68
 89 162 89 162 94 161.5 c 128,-1,69
 99 161 99 161 102 159.5 c 128,-1,70
 105 158 105 158 106 157 c 1,71,-1
 106 156 l 1,72,-1
 106 142 l 1,73,-1
 117 142 l 1,74,-1
 125 156 l 1,75,-1
 130 158 l 1,76,-1
 127 163 l 1,77,-1
 131 165 l 1,25,-1
134 148 m 1,78,79
 125 133 125 133 122 131 c 1,80,-1
 104 131 l 1,81,-1
 104 118 l 1,82,-1
 104 109 l 1,83,-1
 106 100 l 1,84,85
 131 102 131 102 135 96 c 0,86,87
 137 94 137 94 147 48 c 1,88,89
 160 55 160 55 168 60 c 0,90,91
 171 62 171 62 173 64 c 1,92,-1
 134 148 l 1,78,79
99 84 m 1,93,94
 99 55 99 55 97 50 c 1,95,-1
 74 17 l 1,96,-1
 79 9 l 1,97,98
 94 18 94 18 112 28 c 1,99,-1
 104 84 l 1,100,-1
 99 84 l 1,93,94
108 83 m 1,101,-1
 117 31 l 1,102,103
 127 36 127 36 132 39 c 1,104,-1
 123 82 l 1,105,-1
 108 83 l 1,101,-1
EndSplineSet
EndChar

StartChar: G
Encoding: 71 71 10
Width: 256
Flags: W
LayerCount: 2
Fore
SplineSet
218 -4 m 1,0,1
 216 -14 216 -14 201 -21 c 128,-1,2
 186 -28 186 -28 173 -25 c 1,3,-1
 8 39 l 1,4,-1
 22 48 l 1,5,-1
 175 -12 l 1,6,7
 197 -15 197 -15 205 1 c 1,8,9
 195 5 195 5 190 7 c 0,10,11
 189 7 189 7 186 8 c 128,-1,12
 183 9 183 9 181 10 c 128,-1,13
 179 11 179 11 176.5 12.5 c 128,-1,14
 174 14 174 14 173 15.5 c 128,-1,15
 172 17 172 17 173 19 c 1,16,-1
 43 70 l 1,17,-1
 55 78 l 1,18,-1
 88 65 l 1,19,-1
 37 151 l 2,20,21
 35 155 35 155 35 158 c 0,22,23
 35 164 35 164 39 168 c 128,-1,24
 43 172 43 172 49 172 c 0,25,26
 56 172 56 172 60 165 c 2,27,-1
 102 96 l 1,28,-1
 171 68 l 2,29,30
 173 67 173 67 175 65.5 c 128,-1,31
 177 64 177 64 178 63 c 1,32,-1
 178 62 l 1,33,-1
 200 24 l 1,34,-1
 229 13 l 2,35,36
 235 10 235 10 235 4 c 0,37,38
 235 -6 235 -6 225 -6 c 0,39,40
 222 -6 222 -6 218 -4 c 1,0,1
207.5 45 m 128,-1,42
 199 45 199 45 193 51 c 128,-1,43
 187 57 187 57 187 65.5 c 128,-1,44
 187 74 187 74 193 80 c 128,-1,45
 199 86 199 86 207.5 86 c 128,-1,46
 216 86 216 86 222 80 c 128,-1,47
 228 74 228 74 228 65.5 c 128,-1,48
 228 57 228 57 222 51 c 128,-1,41
 216 45 216 45 207.5 45 c 128,-1,42
0 158 m 2,49,-1
 0 -2 l 2,50,51
 0 -38 0 -38 6 -44 c 128,-1,52
 12 -50 12 -50 48 -50 c 2,53,-1
 208 -50 l 2,54,55
 244 -50 244 -50 250 -44 c 128,-1,56
 256 -38 256 -38 256 -2 c 2,57,-1
 256 158 l 2,58,59
 256 194 256 194 250 200 c 128,-1,60
 244 206 244 206 208 206 c 2,61,-1
 48 206 l 2,62,63
 12 206 12 206 6 200 c 128,-1,64
 0 194 0 194 0 158 c 2,49,-1
EndSplineSet
EndChar

StartChar: H
Encoding: 72 72 11
Width: 256
Flags: W
LayerCount: 2
Fore
SplineSet
61 43 m 1024,0,-1
73 108 m 1024,1,2
213 98 m 1,3,-1
 218 101 l 1,4,5
 230 92 230 92 235.5 74.5 c 128,-1,6
 241 57 241 57 231 41.5 c 128,-1,7
 221 26 221 26 195 27 c 1,8,-1
 19 27 l 1,9,-1
 19 43 l 1,10,-1
 62 43 l 1,11,-1
 62 129 l 1,12,-1
 72 129 l 1,13,-1
 73 108 l 1,14,15
 101 104 101 104 219 87 c 1,16,-1
 213 98 l 1,3,-1
0 157 m 2,17,-1
 0 -3 l 2,18,19
 0 -39 0 -39 6 -45 c 128,-1,20
 12 -51 12 -51 48 -51 c 2,21,-1
 208 -51 l 2,22,23
 244 -51 244 -51 250 -45 c 128,-1,24
 256 -39 256 -39 256 -3 c 2,25,-1
 256 157 l 2,26,27
 256 193 256 193 250 199 c 128,-1,28
 244 205 244 205 208 205 c 2,29,-1
 48 205 l 2,30,31
 12 205 12 205 6 199 c 128,-1,32
 0 193 0 193 0 157 c 2,17,-1
EndSplineSet
EndChar

StartChar: I
Encoding: 73 73 12
Width: 256
Flags: W
LayerCount: 2
Fore
SplineSet
132 147 m 1024,0,-1
192 134 m 1024,1,-1
90 148 m 1,2,-1
 89 147 l 1,3,-1
 90 148 l 1,2,-1
90 148 m 1,4,-1
 89 147 l 1,5,-1
 90 148 l 1,4,-1
90 148 m 1,6,-1
 89 147 l 1,7,-1
 90 148 l 1,6,-1
135 177 m 1,8,9
 151 173 151 173 149 155 c 1,10,11
 150 156 150 156 157 155.5 c 128,-1,12
 164 155 164 155 169 155 c 1,13,14
 171 154 171 154 175.5 152.5 c 128,-1,15
 180 151 180 151 183 150 c 128,-1,16
 186 149 186 149 188 149 c 1,17,-1
 192 155 l 1,18,19
 199 157 199 157 204 149 c 1,20,-1
 202 145 l 1,21,-1
 244 89 l 1,22,23
 246 89 246 89 246 88 c 2,24,-1
 245 86 l 1,25,-1
 246 84 l 1,26,-1
 244 85 l 2,27,28
 242 85 242 85 241 86 c 1,29,-1
 241 89 l 1,30,-1
 202 142 l 1,31,32
 202 139 202 139 192 134 c 1,33,34
 189 135 189 135 175 133 c 1,35,36
 174 131 174 131 172 125.5 c 128,-1,37
 170 120 170 120 169 115.5 c 128,-1,38
 168 111 168 111 168 107 c 0,39,40
 169 89 169 89 166 84 c 0,41,42
 153 68 153 68 153 68 c 2,43,44
 152 68 152 68 137 69 c 1,45,46
 125 52 125 52 115 51 c 1,47,-1
 153 24 l 2,48,49
 162 17 162 17 163 14 c 1,50,51
 162 6 162 6 151 14 c 2,52,-1
 90 58 l 1,53,-1
 93 -14 l 1,54,55
 96 -30 96 -30 90 -30 c 1,56,57
 87 -29 87 -29 85 -27.5 c 128,-1,58
 83 -26 83 -26 82 -25 c 128,-1,59
 81 -24 81 -24 80.5 -21 c 128,-1,60
 80 -18 80 -18 80 -17 c 2,61,-1
 80 65 l 1,62,-1
 16 107 l 2,63,64
 13 110 13 110 12 112.5 c 128,-1,65
 11 115 11 115 10.5 118 c 128,-1,66
 10 121 10 121 10 122 c 0,67,68
 11 127 11 127 20 118 c 0,69,70
 24 114 24 114 26 113 c 2,71,-1
 73 80 l 1,72,-1
 76 78 l 1,73,-1
 80 79 l 1,74,-1
 80 82 l 1,75,-1
 76 151 l 1,76,77
 78 156 78 156 79 158 c 1,78,79
 73 162 73 162 73 164 c 0,80,81
 75 170 75 170 85 168 c 0,82,83
 88 167 88 167 90.5 163 c 128,-1,84
 93 159 93 159 97 152 c 128,-1,85
 101 145 101 145 103 143 c 1,86,87
 109 145 109 145 118.5 145.5 c 128,-1,88
 128 146 128 146 131 147 c 1,89,90
 128 150 128 150 126.5 150 c 128,-1,91
 125 150 125 150 118 158 c 1,92,93
 117 168 117 168 121.5 172 c 128,-1,94
 126 176 126 176 135 177 c 1,8,9
85 155 m 1,95,-1
 87 151 l 1,96,-1
 88 151 l 1,97,-1
 85 155 l 1,95,-1
90 147 m 1,98,-1
 107 107 l 1,99,100
 109 107 109 107 112 106 c 128,-1,101
 115 105 115 105 117 104.5 c 128,-1,102
 119 104 119 104 120.5 104.5 c 128,-1,103
 122 105 122 105 123.5 107 c 128,-1,104
 125 109 125 109 126 111 c 2,105,-1
 127 113 l 1,106,-1
 126 127 l 1,107,-1
 97 133 l 1,108,-1
 90 147 l 1,98,-1
88 146 m 1,109,-1
 89 101 l 1,110,111
 99 107 99 107 105 107 c 1,112,-1
 88 146 l 1,109,-1
114 83 m 0,113,114
 113 83 113 83 112 82 c 0,115,116
 99 80 99 80 95 74 c 1,117,-1
 104 71 l 1,118,119
 104 74 104 74 112 79 c 0,120,121
 118 83 118 83 114 83 c 0,113,114
208 206 m 1024,122,-1
208 -52 m 1024,123,124
208 -50 m 1024,125,-1
208 204 m 1024,126,127
0 157 m 2,128,-1
 0 -3 l 2,129,130
 0 -39 0 -39 6 -45 c 128,-1,131
 12 -51 12 -51 48 -51 c 2,132,-1
 208 -51 l 2,133,134
 244 -51 244 -51 250 -45 c 128,-1,135
 256 -39 256 -39 256 -3 c 2,136,-1
 256 157 l 2,137,138
 256 193 256 193 250 199 c 128,-1,139
 244 205 244 205 208 205 c 2,140,-1
 48 205 l 2,141,142
 12 205 12 205 6 199 c 128,-1,143
 0 193 0 193 0 157 c 2,128,-1
EndSplineSet
EndChar

StartChar: J
Encoding: 74 74 13
Width: 256
Flags: W
LayerCount: 2
Fore
SplineSet
155 25 m 0,0,1
 135 5 135 5 106 -11.5 c 128,-1,2
 77 -28 77 -28 67.5 -18.5 c 128,-1,3
 58 -9 58 -9 74.5 20 c 128,-1,4
 91 49 91 49 111 69 c 0,5,6
 120 78 120 78 133 78 c 128,-1,7
 146 78 146 78 155 68.5 c 128,-1,8
 164 59 164 59 164 46.5 c 128,-1,9
 164 34 164 34 155 25 c 0,0,1
173 133 m 0,10,11
 153 114 153 114 124 97 c 128,-1,12
 95 80 95 80 85.5 90 c 128,-1,13
 76 100 76 100 92.5 129 c 128,-1,14
 109 158 109 158 129 177 c 0,15,16
 138 186 138 186 151 186 c 128,-1,17
 164 186 164 186 173 177 c 128,-1,18
 182 168 182 168 182 155 c 128,-1,19
 182 142 182 142 173 133 c 0,10,11
0 157 m 2,20,-1
 0 -3 l 2,21,22
 0 -39 0 -39 6 -45 c 128,-1,23
 12 -51 12 -51 48 -51 c 2,24,-1
 208 -51 l 2,25,26
 244 -51 244 -51 250 -45 c 128,-1,27
 256 -39 256 -39 256 -3 c 2,28,-1
 256 157 l 2,29,30
 256 193 256 193 250 199 c 128,-1,31
 244 205 244 205 208 205 c 2,32,-1
 48 205 l 2,33,34
 12 205 12 205 6 199 c 128,-1,35
 0 193 0 193 0 157 c 2,20,-1
EndSplineSet
EndChar

StartChar: a
Encoding: 97 97 14
Width: 256
Flags: W
LayerCount: 2
Fore
SplineSet
207.5 100 m 128,-1,1
 199 100 199 100 193 106 c 128,-1,2
 187 112 187 112 187 120.5 c 128,-1,3
 187 129 187 129 193 135 c 128,-1,4
 199 141 199 141 207.5 141 c 128,-1,5
 216 141 216 141 222 135 c 128,-1,6
 228 129 228 129 228 120.5 c 128,-1,7
 228 112 228 112 222 106 c 128,-1,0
 216 100 216 100 207.5 100 c 128,-1,1
186 -30 m 2,8,-1
 3 76 l 1,9,-1
 13 88 l 1,10,-1
 193 -18 l 2,11,12
 202 -23 202 -23 207 -14 c 1,13,-1
 213 -18 l 1,14,15
 209 -25 209 -25 200.5 -29 c 128,-1,16
 192 -33 192 -33 186 -30 c 2,8,-1
124 165 m 2,17,-1
 168 139 l 2,18,19
 175 134 175 134 176 126 c 2,20,-1
 180 80 l 1,21,-1
 211 62 l 2,22,23
 218 57 218 57 214 49.5 c 128,-1,24
 210 42 210 42 202 46 c 2,25,-1
 163 69 l 2,26,27
 158 72 158 72 157 78 c 2,28,-1
 154 104 l 1,29,-1
 124 122 l 1,30,-1
 132 95 l 1,31,32
 132 95 132 95 131 89.5 c 128,-1,33
 130 84 130 84 123 81 c 2,34,-1
 74 65 l 2,35,36
 70 64 70 64 69 64 c 0,37,38
 55 66 55 66 57 78 c 0,39,40
 58 86 58 86 65 89 c 2,41,-1
 102 101 l 1,42,-1
 90 140 l 2,43,44
 86 150 86 150 93 159 c 0,45,46
 98 167 98 167 107 168.5 c 128,-1,47
 116 170 116 170 124 165 c 2,17,-1
EndSplineSet
EndChar

StartChar: b
Encoding: 98 98 15
Width: 256
Flags: W
LayerCount: 2
Fore
SplineSet
236 163 m 1,0,-1
 241 161 l 1,1,-1
 186 -10 l 1,2,-1
 180 -8 l 1,3,-1
 236 163 l 1,0,-1
169 170 m 128,-1,5
 169 191 169 191 189.5 191 c 128,-1,6
 210 191 210 191 210 170 c 128,-1,7
 210 149 210 149 189.5 149 c 128,-1,4
 169 149 169 149 169 170 c 128,-1,5
218 -20 m 1024,8,9
145 94 m 1024,10,-1
218 -20 m 1,11,-1
 217 -20 l 2,12,13
 218 -20 218 -20 218 -20 c 1,11,-1
157 158 m 0,14,15
 161 158 161 158 166 157 c 1,16,17
 174 153 174 153 182.5 147.5 c 128,-1,18
 191 142 191 142 195 138 c 2,19,-1
 199 135 l 1,20,-1
 225 156 l 1,21,-1
 228 145 l 1,22,23
 203 123 203 123 199 121 c 1,24,25
 195 121 195 121 187.5 125 c 128,-1,26
 180 129 180 129 175 136 c 1,27,28
 173 124 173 124 168 117 c 128,-1,29
 163 110 163 110 156 104.5 c 128,-1,30
 149 99 149 99 146 94 c 1,31,32
 179 68 179 68 181 56 c 1,33,-1
 158 -7 l 1,34,-1
 145 -7 l 1,35,-1
 155 54 l 1,36,-1
 127 80 l 1,37,38
 124 76 124 76 120.5 69 c 128,-1,39
 117 62 117 62 111.5 56.5 c 128,-1,40
 106 51 106 51 96 45 c 1,41,-1
 58 32 l 1,42,-1
 127 -19 l 1,43,-1
 217 -19 l 1,44,-1
 217 -19 l 1,45,46
 220 -19 220 -19 226 -9 c 1,47,-1
 233 -11 l 1,48,49
 227 -28 227 -28 217 -28 c 2,50,-1
 59 -28 l 1,51,-1
 59 -19 l 1,52,-1
 113 -19 l 1,53,-1
 7 59 l 1,54,-1
 12 66 l 1,55,-1
 44 43 l 1,56,-1
 90 62 l 1,57,58
 101 91 101 91 111 106 c 1,59,-1
 125 118 l 1,60,-1
 132 124 l 1,61,-1
 145 141 l 1,62,-1
 129 140 l 1,63,-1
 121 133 l 1,64,-1
 110 122 l 1,65,-1
 110 118 l 1,66,-1
 6 118 l 1,67,-1
 6 124 l 1,68,-1
 99 124 l 1,69,-1
 104 131 l 1,70,-1
 126 152 l 1,71,72
 149 158 149 158 157 158 c 0,14,15
EndSplineSet
EndChar

StartChar: c
Encoding: 99 99 16
Width: 256
Flags: W
LayerCount: 2
Fore
SplineSet
60 -17 m 1024,0,-1
81 -26 m 1024,1,-1
33 142 m 1024,2,-1
22 171 m 1024,3,-1
8 146 m 1024,4,-1
21 170 m 0,5,6
 12 172 12 172 8.5 162.5 c 128,-1,7
 5 153 5 153 9 146 c 1,8,9
 16 122 16 122 25 94.5 c 128,-1,10
 34 67 34 67 44.5 34.5 c 128,-1,11
 55 2 55 2 61 -16 c 0,12,13
 62 -20 62 -20 64 -27 c 128,-1,14
 66 -34 66 -34 68 -39 c 128,-1,15
 70 -44 70 -44 73 -45 c 0,16,17
 84 -46 84 -46 84.5 -40 c 128,-1,18
 85 -34 85 -34 81 -26 c 1,19,20
 76 -8 76 -8 64.5 26.5 c 128,-1,21
 53 61 53 61 45 88.5 c 128,-1,22
 37 116 37 116 33 142 c 0,23,24
 32 145 32 145 31 152 c 128,-1,25
 30 159 30 159 28 163.5 c 128,-1,26
 26 168 26 168 21 170 c 0,5,6
224 142 m 1,27,-1
 224 142 l 1,28,-1
 224 142 l 1,27,-1
197 -17 m 1024,29,-1
236 170 m 0,30,31
 231 168 231 168 229 163.5 c 128,-1,32
 227 159 227 159 226.5 152 c 128,-1,33
 226 145 226 145 225 142 c 0,34,35
 220 116 220 116 212.5 88.5 c 128,-1,36
 205 61 205 61 193.5 26.5 c 128,-1,37
 182 -8 182 -8 177 -26 c 1,38,39
 172 -34 172 -34 173 -40 c 128,-1,40
 174 -46 174 -46 184 -45 c 0,41,42
 188 -44 188 -44 190 -39 c 128,-1,43
 192 -34 192 -34 193.5 -27 c 128,-1,44
 195 -20 195 -20 197 -16 c 0,45,46
 203 2 203 2 213.5 34.5 c 128,-1,47
 224 67 224 67 232.5 94.5 c 128,-1,48
 241 122 241 122 249 146 c 0,49,50
 252 153 252 153 249 162.5 c 128,-1,51
 246 172 246 172 236 170 c 0,30,31
129 169 m 1024,52,-1
129 168 m 1024,53,-1
118 61 m 1024,54,-1
163 92 m 1024,55,-1
118 61 m 1024,56,-1
163 92 m 1024,57,-1
118 61 m 1024,58,-1
163 92 m 1024,59,-1
123 169 m 0,60,61
 97 167 97 167 80 148.5 c 128,-1,62
 63 130 63 130 63 105 c 0,63,64
 63 75 63 75 83 57.5 c 128,-1,65
 103 40 103 40 127 40 c 128,-1,66
 151 40 151 40 171 57.5 c 128,-1,67
 191 75 191 75 191 105 c 0,68,69
 191 131 191 131 173 149.5 c 128,-1,70
 155 168 155 168 129 169 c 0,71,72
 126 169 126 169 123 169 c 0,60,61
102 136 m 1,73,74
 102 136 102 136 103 136 c 0,75,76
 107 137 107 137 110.5 133 c 128,-1,77
 114 129 114 129 114 123 c 0,78,79
 114 109 114 109 104 109 c 128,-1,80
 94 109 94 109 94 123 c 0,81,82
 94 134 94 134 102 136 c 1,73,74
150 136 m 0,83,84
 151 136 151 136 152 136 c 0,85,86
 156 137 156 137 159 133 c 128,-1,87
 162 129 162 129 162 123 c 0,88,89
 162 114 162 114 157 110.5 c 128,-1,90
 152 107 152 107 147.5 110.5 c 128,-1,91
 143 114 143 114 143 123 c 0,92,93
 142 134 142 134 150 136 c 0,83,84
92 93 m 1,94,-1
 162 93 l 1,95,96
 152 60 152 60 126.5 60 c 128,-1,97
 101 60 101 60 92 93 c 1,94,-1
EndSplineSet
EndChar

StartChar: d
Encoding: 100 100 17
Width: 256
Flags: W
LayerCount: 2
Fore
SplineSet
149 123 m 4,0,1
 146 120 146 120 113.832 119.17 c 4,2,3
 112.388 119.133 112.388 119.133 110.915 119.133 c 4,4,5
 103.805 119.133 103.805 119.133 96 120 c 4,6,7
 95 120 95 120 81 120 c 4,8,9
 76 120 76 120 71 120 c 4,10,11
 69 120 69 120 65 122 c 4,12,13
 63 123 63 123 63 125 c 132,-1,14
 63 127 63 127 64 127 c 4,15,16
 81 127 81 127 123 135 c 4,17,18
 166.2 143.1 166.2 143.1 175.38 143.1 c 4,19,20
 176.4 143.1 176.4 143.1 177 143 c 12,21,22
 187 141 187 141 190 137 c 4,23,24
 192 134 192 134 192 122 c 4,25,26
 192 115 192 115 174 98 c 5,27,-1
 150 76 l 5,28,-1
 163 59 l 6,29,30
 176 43 176 43 176 39 c 4,31,32
 176 33 176 33 176 33 c 132,-1,33
 176 33 176 33 176 25 c 4,34,35
 175 19 175 19 175 16 c 4,36,37
 175 15 175 15 173 -5 c 4,38,39
 172 -15 172 -15 172 -23 c 4,40,41
 172 -24 172 -24 177 -24 c 4,42,43
 181 -24 181 -24 186 -28 c 4,44,45
 190 -31 190 -31 189 -34 c 5,46,-1
 192 -34 l 6,47,48
 198 -34 198 -34 199 -24 c 5,49,-1
 203 -24 l 5,50,51
 203.2 -25.2 203.2 -25.2 203.2 -26.4 c 4,52,53
 203.2 -31.2 203.2 -31.2 200 -36 c 132,-1,54
 197 -41 197 -41 190 -41 c 132,-1,55
 183 -41 183 -41 168 -41 c 4,56,57
 157 -41 157 -41 146 -41 c 5,58,-1
 146 -34 l 5,59,-1
 159 -34 l 5,60,61
 156 -17 156 -17 156 -2.5 c 132,-1,62
 156 12 156 12 159 24 c 4,63,64
 160 28 160 28 158 30 c 6,65,-1
 139 50 l 6,66,67
 131 59 131 59 128 62 c 5,68,-1
 97 25 l 5,69,70
 52 -3 52 -3 50 -3 c 4,71,72
 49 -3 49 -3 52 -7 c 4,73,74
 56 -12 56 -12 57 -16 c 4,75,76
 57.1429 -16.7143 57.1429 -16.7143 57.1429 -17.4082 c 4,77,78
 57.1429 -21.5714 57.1429 -21.5714 52 -25 c 5,79,-1
 54 -28 l 5,80,81
 55.7143 -28.5714 55.7143 -28.5714 57.4286 -28.5714 c 4,82,-1
 66 -25 l 5,83,-1
 69 -29 l 5,84,85
 63.75 -35.125 63.75 -35.125 58.5 -35.125 c 4,86,-1
 57 -35 l 4,87,88
 49 -34 49 -34 45 -28 c 6,89,-1
 22 6 l 5,90,-1
 27 10 l 5,91,-1
 33 0 l 5,92,93
 47 16 47 16 86 40 c 5,94,95
 87 41 87 41 88 48 c 4,96,97
 90 55 90 55 90 56 c 4,98,-1
 92 62 l 4,99,100
 94 68 94 68 95 69 c 4,101,102
 97 71 97 71 97 75 c 4,103,104
 97 77 97 77 101 81 c 4,105,106
 102 83 102 83 105 86 c 4,107,108
 111 92 111 92 111 92 c 4,109,110
 114 94 114 94 118 97 c 132,-1,111
 122 100 122 100 126 103 c 5,112,113
 139 112 139 112 149 123 c 4,0,1
229.322 157.037 m 132,-1,115
 229.322 148.521 229.322 148.521 223.295 142.493 c 132,-1,116
 217.268 136.466 217.268 136.466 208.751 136.466 c 132,-1,117
 200.234 136.466 200.234 136.466 194.207 142.493 c 132,-1,118
 188.18 148.521 188.18 148.521 188.18 157.037 c 132,-1,119
 188.18 165.554 188.18 165.554 194.207 171.581 c 132,-1,120
 200.234 177.608 200.234 177.608 208.751 177.608 c 132,-1,121
 217.268 177.608 217.268 177.608 223.295 171.581 c 132,-1,114
 229.322 165.554 229.322 165.554 229.322 157.037 c 132,-1,115
EndSplineSet
EndChar

StartChar: e
Encoding: 101 101 18
Width: 256
Flags: W
LayerCount: 2
Fore
SplineSet
235 90 m 2,0,-1
 36 -36 l 1,1,-1
 29 -26 l 1,2,-1
 226 98 l 2,3,4
 235 104 235 104 229 113 c 1,5,-1
 240 119 l 1,6,7
 244 113 244 113 242.5 103.5 c 128,-1,8
 241 94 241 94 235 90 c 2,0,-1
104 80 m 1,9,-1
 67 7 l 2,10,11
 62 -3 62 -3 52 2 c 128,-1,12
 42 7 42 7 47 18 c 2,13,-1
 96 114 l 2,14,15
 98 118 98 118 102 121 c 2,16,-1
 149 151 l 2,17,18
 155 155 155 155 162.5 153.5 c 128,-1,19
 170 152 170 152 174 146 c 128,-1,20
 178 140 178 140 176 132.5 c 128,-1,21
 174 125 174 125 168 121 c 2,22,-1
 104 80 l 1,9,-1
182 152 m 1,23,24
 191 152 191 152 197 158 c 128,-1,25
 203 164 203 164 203 172.5 c 128,-1,26
 203 181 203 181 197 187 c 128,-1,27
 191 193 191 193 182.5 193 c 128,-1,28
 174 193 174 193 168 187 c 128,-1,29
 162 181 162 181 162 172.5 c 128,-1,30
 162 164 162 164 168 158 c 128,-1,31
 174 152 174 152 182 152 c 1,32,-1
 182 152 l 1,23,24
EndSplineSet
EndChar

StartChar: f
Encoding: 102 102 19
Width: 256
Flags: W
LayerCount: 2
Fore
SplineSet
103.5 196 m 128,-1,1
 110 196 110 196 114.5 191.5 c 128,-1,2
 119 187 119 187 119 180.5 c 128,-1,3
 119 174 119 174 114.5 169 c 128,-1,4
 110 164 110 164 103.5 164 c 128,-1,5
 97 164 97 164 92 169 c 128,-1,6
 87 174 87 174 87 180.5 c 128,-1,7
 87 187 87 187 92 191.5 c 128,-1,0
 97 196 97 196 103.5 196 c 128,-1,1
131 165 m 1,8,-1
 176 70 l 2,9,10
 176 69 176 69 177 67.5 c 128,-1,11
 178 66 178 66 179 62 c 128,-1,12
 180 58 180 58 178 56 c 1,13,14
 214 76 214 76 233 88 c 0,15,16
 237 90 237 90 238.5 92 c 128,-1,17
 240 94 240 94 241 96 c 1,18,-1
 241 97 l 1,19,20
 249 85 249 85 240 80 c 0,21,22
 159 35 159 35 119 13 c 1,23,-1
 122 -1 l 1,24,-1
 117 -2 l 1,25,-1
 115 11 l 1,26,-1
 94 -1 l 1,27,-1
 91 7 l 1,28,-1
 29 -28 l 1,29,-1
 26 -19 l 1,30,31
 42 -11 42 -11 64 2 c 1,32,-1
 53 16 l 1,33,-1
 79 54 l 1,34,-1
 80 86 l 1,35,36
 76 88 76 88 75 91 c 1,37,-1
 75 103 l 1,38,-1
 72 96 l 1,39,-1
 53 95 l 1,40,41
 52 108 52 108 52.5 132 c 128,-1,42
 53 156 53 156 55 160 c 0,43,44
 57 162 57 162 62.5 162.5 c 128,-1,45
 68 163 68 163 72 163 c 2,46,-1
 77 162 l 1,47,-1
 79 151 l 1,48,49
 80 152 80 152 81 154 c 128,-1,50
 82 156 82 156 85.5 159 c 128,-1,51
 89 162 89 162 94 161.5 c 128,-1,52
 99 161 99 161 102 159.5 c 128,-1,53
 105 158 105 158 106 157 c 1,54,-1
 106 156 l 1,55,-1
 106 142 l 1,56,-1
 117 142 l 1,57,-1
 125 156 l 1,58,-1
 130 158 l 1,59,-1
 127 163 l 1,60,-1
 131 165 l 1,8,-1
134 148 m 1,61,62
 125 133 125 133 122 131 c 1,63,-1
 104 131 l 1,64,-1
 104 118 l 1,65,-1
 104 109 l 1,66,-1
 106 100 l 1,67,68
 131 102 131 102 135 96 c 0,69,70
 137 94 137 94 147 48 c 1,71,72
 160 55 160 55 168 60 c 0,73,74
 171 62 171 62 173 64 c 1,75,-1
 134 148 l 1,61,62
99 84 m 1,76,77
 99 55 99 55 97 50 c 1,78,-1
 74 17 l 1,79,-1
 79 9 l 1,80,81
 94 18 94 18 112 28 c 1,82,-1
 104 84 l 1,83,-1
 99 84 l 1,76,77
108 83 m 1,84,-1
 117 31 l 1,85,86
 127 36 127 36 132 39 c 1,87,-1
 123 82 l 1,88,-1
 108 83 l 1,84,-1
EndSplineSet
EndChar

StartChar: g
Encoding: 103 103 20
Width: 256
Flags: W
LayerCount: 2
Fore
SplineSet
218 -4 m 1,0,1
 216 -14 216 -14 201 -21 c 128,-1,2
 186 -28 186 -28 173 -25 c 1,3,-1
 8 39 l 1,4,-1
 22 48 l 1,5,-1
 175 -12 l 1,6,7
 197 -15 197 -15 205 1 c 1,8,9
 195 5 195 5 190 7 c 0,10,11
 189 7 189 7 186 8 c 128,-1,12
 183 9 183 9 181 10 c 128,-1,13
 179 11 179 11 176.5 12.5 c 128,-1,14
 174 14 174 14 173 15.5 c 128,-1,15
 172 17 172 17 173 19 c 1,16,-1
 43 70 l 1,17,-1
 55 78 l 1,18,-1
 88 65 l 1,19,-1
 37 151 l 2,20,21
 35 155 35 155 35 158 c 0,22,23
 35 164 35 164 39 168 c 128,-1,24
 43 172 43 172 49 172 c 0,25,26
 56 172 56 172 60 165 c 2,27,-1
 102 96 l 1,28,-1
 171 68 l 2,29,30
 173 67 173 67 175 65.5 c 128,-1,31
 177 64 177 64 178 63 c 1,32,-1
 178 62 l 1,33,-1
 200 24 l 1,34,-1
 229 13 l 2,35,36
 235 10 235 10 235 4 c 0,37,38
 235 -6 235 -6 225 -6 c 0,39,40
 222 -6 222 -6 218 -4 c 1,0,1
207.5 45 m 128,-1,42
 199 45 199 45 193 51 c 128,-1,43
 187 57 187 57 187 65.5 c 128,-1,44
 187 74 187 74 193 80 c 128,-1,45
 199 86 199 86 207.5 86 c 128,-1,46
 216 86 216 86 222 80 c 128,-1,47
 228 74 228 74 228 65.5 c 128,-1,48
 228 57 228 57 222 51 c 128,-1,41
 216 45 216 45 207.5 45 c 128,-1,42
EndSplineSet
EndChar

StartChar: h
Encoding: 104 104 21
Width: 256
Flags: W
LayerCount: 2
Fore
SplineSet
61 43 m 1024,0,-1
73 108 m 1024,1,2
213 98 m 1,3,-1
 218 101 l 1,4,5
 230 92 230 92 235.5 74.5 c 128,-1,6
 241 57 241 57 231 41.5 c 128,-1,7
 221 26 221 26 195 27 c 1,8,-1
 19 27 l 1,9,-1
 19 43 l 1,10,-1
 62 43 l 1,11,-1
 62 129 l 1,12,-1
 72 129 l 1,13,-1
 73 108 l 1,14,15
 101 104 101 104 219 87 c 1,16,-1
 213 98 l 1,3,-1
EndSplineSet
EndChar

StartChar: i
Encoding: 105 105 22
Width: 256
Flags: W
LayerCount: 2
Fore
SplineSet
132 147 m 1024,0,-1
192 134 m 1024,1,-1
90 148 m 1,2,-1
 89 147 l 1,3,-1
 90 148 l 1,2,-1
90 148 m 1,4,-1
 89 147 l 1,5,-1
 90 148 l 1,4,-1
90 148 m 1,6,-1
 89 147 l 1,7,-1
 90 148 l 1,6,-1
135 177 m 1,8,9
 151 173 151 173 149 155 c 1,10,11
 150 156 150 156 157 155.5 c 128,-1,12
 164 155 164 155 169 155 c 1,13,14
 171 154 171 154 175.5 152.5 c 128,-1,15
 180 151 180 151 183 150 c 128,-1,16
 186 149 186 149 188 149 c 1,17,-1
 192 155 l 1,18,19
 199 157 199 157 204 149 c 1,20,-1
 202 145 l 1,21,-1
 244 89 l 1,22,23
 246 89 246 89 246 88 c 2,24,-1
 245 86 l 1,25,-1
 246 84 l 1,26,-1
 244 85 l 2,27,28
 242 85 242 85 241 86 c 1,29,-1
 241 89 l 1,30,-1
 202 142 l 1,31,32
 202 139 202 139 192 134 c 1,33,34
 189 135 189 135 175 133 c 1,35,36
 174 131 174 131 172 125.5 c 128,-1,37
 170 120 170 120 169 115.5 c 128,-1,38
 168 111 168 111 168 107 c 0,39,40
 169 89 169 89 166 84 c 0,41,42
 153 68 153 68 153 68 c 2,43,44
 152 68 152 68 137 69 c 1,45,46
 125 52 125 52 115 51 c 1,47,-1
 153 24 l 2,48,49
 162 17 162 17 163 14 c 1,50,51
 162 6 162 6 151 14 c 2,52,-1
 90 58 l 1,53,-1
 93 -14 l 1,54,55
 96 -30 96 -30 90 -30 c 1,56,57
 87 -29 87 -29 85 -27.5 c 128,-1,58
 83 -26 83 -26 82 -25 c 128,-1,59
 81 -24 81 -24 80.5 -21 c 128,-1,60
 80 -18 80 -18 80 -17 c 2,61,-1
 80 65 l 1,62,-1
 16 107 l 2,63,64
 13 110 13 110 12 112.5 c 128,-1,65
 11 115 11 115 10.5 118 c 128,-1,66
 10 121 10 121 10 122 c 0,67,68
 11 127 11 127 20 118 c 0,69,70
 24 114 24 114 26 113 c 2,71,-1
 73 80 l 1,72,-1
 76 78 l 1,73,-1
 80 79 l 1,74,-1
 80 82 l 1,75,-1
 76 151 l 1,76,77
 78 156 78 156 79 158 c 1,78,79
 73 162 73 162 73 164 c 0,80,81
 75 170 75 170 85 168 c 0,82,83
 88 167 88 167 90.5 163 c 128,-1,84
 93 159 93 159 97 152 c 128,-1,85
 101 145 101 145 103 143 c 1,86,87
 109 145 109 145 118.5 145.5 c 128,-1,88
 128 146 128 146 131 147 c 1,89,90
 128 150 128 150 126.5 150 c 128,-1,91
 125 150 125 150 118 158 c 1,92,93
 117 168 117 168 121.5 172 c 128,-1,94
 126 176 126 176 135 177 c 1,8,9
85 155 m 1,95,-1
 87 151 l 1,96,-1
 88 151 l 1,97,-1
 85 155 l 1,95,-1
90 147 m 1,98,-1
 107 107 l 1,99,100
 109 107 109 107 112 106 c 128,-1,101
 115 105 115 105 117 104.5 c 128,-1,102
 119 104 119 104 120.5 104.5 c 128,-1,103
 122 105 122 105 123.5 107 c 128,-1,104
 125 109 125 109 126 111 c 2,105,-1
 127 113 l 1,106,-1
 126 127 l 1,107,-1
 97 133 l 1,108,-1
 90 147 l 1,98,-1
88 146 m 1,109,-1
 89 101 l 1,110,111
 99 107 99 107 105 107 c 1,112,-1
 88 146 l 1,109,-1
114 83 m 0,113,114
 113 83 113 83 112 82 c 0,115,116
 99 80 99 80 95 74 c 1,117,-1
 104 71 l 1,118,119
 104 74 104 74 112 79 c 0,120,121
 118 83 118 83 114 83 c 0,113,114
208 206 m 1024,122,-1
208 -52 m 1024,123,124
208 -50 m 1024,125,-1
208 204 m 1024,126,127
EndSplineSet
EndChar

StartChar: j
Encoding: 106 106 23
Width: 256
Flags: W
LayerCount: 2
Fore
SplineSet
155 25 m 0,0,1
 135 5 135 5 106 -11.5 c 128,-1,2
 77 -28 77 -28 67.5 -18.5 c 128,-1,3
 58 -9 58 -9 74.5 20 c 128,-1,4
 91 49 91 49 111 69 c 0,5,6
 120 78 120 78 133 78 c 128,-1,7
 146 78 146 78 155 68.5 c 128,-1,8
 164 59 164 59 164 46.5 c 128,-1,9
 164 34 164 34 155 25 c 0,0,1
173 133 m 0,10,11
 153 114 153 114 124 97 c 128,-1,12
 95 80 95 80 85.5 90 c 128,-1,13
 76 100 76 100 92.5 129 c 128,-1,14
 109 158 109 158 129 177 c 0,15,16
 138 186 138 186 151 186 c 128,-1,17
 164 186 164 186 173 177 c 128,-1,18
 182 168 182 168 182 155 c 128,-1,19
 182 142 182 142 173 133 c 0,10,11
EndSplineSet
EndChar

StartChar: K
Encoding: 75 75 24
Width: 256
VWidth: 0
Flags: W
HStem: -51 21G<38 218> -14.1855 22.0508<32.8738 85.4815 170.519 223.126> 185 20G<38 218>
LayerCount: 2
Fore
SplineSet
48 205.5 m 1026,0,1
256.5 157 m 1026,2,3
255.5 157 m 1026,4,-1
48 204.5 m 1026,5,-1
48 205 m 2,6,-1
 208 205 l 2,7,8
 228 205 228 205 242 191 c 128,-1,9
 256 177 256 177 256 157 c 2,10,-1
 256 -3 l 2,11,12
 256 -23 256 -23 242 -37 c 128,-1,13
 228 -51 228 -51 208 -51 c 2,14,-1
 48 -51 l 2,15,16
 28 -51 28 -51 14 -37 c 128,-1,17
 0 -23 0 -23 0 -3 c 2,18,-1
 0 157 l 2,19,20
 0 177 0 177 14 191 c 128,-1,21
 28 205 28 205 48 205 c 2,6,-1
94.6191 168.184 m 0,22,23
 93.5062 168.161 93.5062 168.161 92.4785 167.703 c 0,24,25
 87.4441 165.457 87.4441 165.457 89.6895 160.424 c 2,26,-1
 121.965 88.0352 l 1,27,-1
 86.1484 7.70117 l 2,28,29
 85.4815 7.86523 85.4815 7.86523 84.8223 7.86523 c 2,30,-1
 35.4883 7.86523 l 2,31,32
 32.8738 7.86523 32.8738 7.86523 29.9766 2.35352 c 2,33,-1
 24.1816 -8.67188 l 2,34,35
 23.1723 -10.5921 23.1723 -10.5921 25.2 -12.3888 c 128,-1,36
 27.2278 -14.1855 27.2278 -14.1855 29.6953 -14.1855 c 2,37,-1
 84.8223 -14.1855 l 2,38,39
 87.4371 -14.1855 87.4371 -14.1855 89.0898 -12.1699 c 0,40,41
 89.6402 -11.5413 89.6402 -11.5413 89.9844 -10.7695 c 2,42,-1
 128 74.4961 l 1,43,-1
 166.016 -10.7695 l 2,44,45
 166.358 -11.536 166.358 -11.536 166.91 -12.1699 c 0,46,47
 168.563 -14.1855 168.563 -14.1855 171.178 -14.1855 c 2,48,-1
 226.305 -14.1855 l 2,49,50
 228.772 -14.1855 228.772 -14.1855 230.8 -12.3888 c 128,-1,51
 232.828 -10.5921 232.828 -10.5921 231.818 -8.67188 c 2,52,-1
 226.023 2.35352 l 2,53,54
 223.126 7.86523 223.126 7.86523 220.512 7.86523 c 2,55,-1
 171.178 7.86523 l 2,56,57
 170.519 7.86523 170.519 7.86523 169.852 7.70117 c 2,58,-1
 134.035 88.0352 l 1,59,-1
 166.311 160.424 l 2,60,61
 168.556 165.457 168.556 165.457 163.521 167.703 c 128,-1,62
 158.486 169.949 158.486 169.949 156.24 164.914 c 2,63,-1
 128 101.572 l 1,64,-1
 99.7598 164.914 l 2,65,66
 98.2688 168.258 98.2688 168.258 94.6191 168.184 c 0,22,23
EndSplineSet
EndChar

StartChar: k
Encoding: 107 107 25
Width: 256
VWidth: 0
Flags: W
HStem: -51 21G<38 218> -14.1855 22.0508<32.8738 85.4815 170.519 223.126> 185 20G<38 218>
LayerCount: 2
Fore
SplineSet
94.6191 168.184 m 0,0,1
 93.5062 168.161 93.5062 168.161 92.4785 167.703 c 0,2,3
 87.4441 165.457 87.4441 165.457 89.6895 160.424 c 2,4,-1
 121.965 88.0352 l 1,5,-1
 86.1484 7.70117 l 2,6,7
 85.4815 7.86523 85.4815 7.86523 84.8223 7.86523 c 2,8,-1
 35.4883 7.86523 l 2,9,10
 32.8738 7.86523 32.8738 7.86523 29.9766 2.35352 c 2,11,-1
 24.1816 -8.67188 l 2,12,13
 23.1723 -10.5921 23.1723 -10.5921 25.2 -12.3888 c 128,-1,14
 27.2278 -14.1855 27.2278 -14.1855 29.6953 -14.1855 c 2,15,-1
 84.8223 -14.1855 l 2,16,17
 87.4371 -14.1855 87.4371 -14.1855 89.0898 -12.1699 c 0,18,19
 89.6402 -11.5413 89.6402 -11.5413 89.9844 -10.7695 c 2,20,-1
 128 74.4961 l 1,21,-1
 166.016 -10.7695 l 2,22,23
 166.358 -11.536 166.358 -11.536 166.91 -12.1699 c 0,24,25
 168.563 -14.1855 168.563 -14.1855 171.178 -14.1855 c 2,26,-1
 226.305 -14.1855 l 2,27,28
 228.772 -14.1855 228.772 -14.1855 230.8 -12.3888 c 128,-1,29
 232.828 -10.5921 232.828 -10.5921 231.818 -8.67188 c 2,30,-1
 226.023 2.35352 l 2,31,32
 223.126 7.86523 223.126 7.86523 220.512 7.86523 c 2,33,-1
 171.178 7.86523 l 2,34,35
 170.519 7.86523 170.519 7.86523 169.852 7.70117 c 2,36,-1
 134.035 88.0352 l 1,37,-1
 166.311 160.424 l 2,38,39
 168.556 165.457 168.556 165.457 163.521 167.703 c 128,-1,40
 158.486 169.949 158.486 169.949 156.24 164.914 c 2,41,-1
 128 101.572 l 1,42,-1
 99.7598 164.914 l 2,43,44
 98.2688 168.258 98.2688 168.258 94.6191 168.184 c 0,0,1
EndSplineSet
EndChar

StartChar: L
Encoding: 76 76 26
Width: 256
VWidth: 0
HStem: -51 54.4062<49.7967 67.3477 188.652 206.203> 130.594 20G<85.0875 196.174>
VStem: 0 30.0234<26.8049 77.9841> 225.977 30.0234<26.8049 77.9841>
LayerCount: 2
Fore
SplineSet
48 205 m 2,0,1
 28 205 28 205 14 191 c 128,-1,2
 0 177 0 177 -0 157 c 2,3,-1
 0 -3 l 2,4,5
 0 -23 0 -23 14 -37 c 128,-1,6
 28 -51 28 -51 48 -51 c 2,7,-1
 208 -51 l 2,8,9
 228 -51 228 -51 242 -37 c 128,-1,10
 256 -23 256 -23 256 -3 c 2,11,-1
 256 157 l 2,12,13
 256 177 256 177 242 191 c 128,-1,14
 228 205 228 205 208 205 c 2,15,-1
 48 205 l 2,0,1
192.5 150.594 m 2,16,17
 199.848 150.594 199.848 150.594 199.848 143.246 c 128,-1,18
 199.848 135.898 199.848 135.898 192.5 135.898 c 2,19,-1
 102.838 135.898 l 1,20,-1
 102.838 101.383 l 1,21,-1
 188.652 101.383 l 2,22,23
 204.104 101.383 204.104 101.383 215.04 87.0291 c 128,-1,24
 225.977 72.6753 225.977 72.6753 225.977 52.3945 c 128,-1,25
 225.977 32.1138 225.977 32.1138 215.04 17.76 c 128,-1,26
 204.104 3.40625 204.104 3.40625 188.652 3.40625 c 2,27,-1
 67.3477 3.40625 l 2,28,29
 51.8957 3.40625 51.8957 3.40625 40.9596 17.76 c 128,-1,30
 30.0234 32.1138 30.0234 32.1138 30.0234 52.3945 c 128,-1,31
 30.0234 72.6753 30.0234 72.6753 40.9596 87.0291 c 128,-1,32
 51.8957 101.383 51.8957 101.383 67.3477 101.383 c 2,33,-1
 73.4453 101.383 l 1,34,-1
 73.4453 135.898 l 2,35,36
 73.4453 142.005 73.4453 142.005 77.7399 146.299 c 128,-1,37
 82.0344 150.594 82.0344 150.594 88.1406 150.594 c 0,38,-1
 192.5 150.594 l 2,16,17
EndSplineSet
EndChar

StartChar: section
Encoding: 167 167 27
Width: 256
VWidth: 0
Flags: W
HStem: -51 54.4062<49.7967 206.203> 101.383 34.5156<102.838 199.606> 150.594 54.4062<77.8745 199.733>
VStem: 0 30.0234<26.8049 77.9841> 225.977 30.0234<26.8049 77.9841>
LayerCount: 2
Fore
SplineSet
48 205 m 2,0,1
 28 205 28 205 14 191 c 128,-1,2
 0 177 0 177 -0 157 c 2,3,-1
 0 -3 l 2,4,5
 0 -23 0 -23 14 -37 c 128,-1,6
 28 -51 28 -51 48 -51 c 2,7,-1
 208 -51 l 2,8,9
 228 -51 228 -51 242 -37 c 128,-1,10
 256 -23 256 -23 256 -3 c 2,11,-1
 256 157 l 2,12,13
 256 177 256 177 242 191 c 128,-1,14
 228 205 228 205 208 205 c 2,15,-1
 48 205 l 2,0,1
88.1406 150.594 m 0,16,17
 192.5 150.594 l 2,18,19
 199.848 150.594 199.848 150.594 199.848 143.246 c 128,-1,20
 199.848 135.898 199.848 135.898 192.5 135.898 c 2,21,-1
 102.838 135.898 l 1,22,-1
 102.838 101.383 l 1,23,-1
 188.652 101.383 l 2,24,25
 204.104 101.383 204.104 101.383 215.04 87.0291 c 128,-1,26
 225.977 72.6753 225.977 72.6753 225.977 52.3945 c 128,-1,27
 225.977 32.1138 225.977 32.1138 215.04 17.76 c 128,-1,28
 204.104 3.40625 204.104 3.40625 188.652 3.40625 c 2,29,-1
 67.3477 3.40625 l 2,30,31
 51.8957 3.40625 51.8957 3.40625 40.9596 17.76 c 128,-1,32
 30.0234 32.1138 30.0234 32.1138 30.0234 52.3945 c 128,-1,33
 30.0234 72.6753 30.0234 72.6753 40.9596 87.0291 c 128,-1,34
 51.8957 101.383 51.8957 101.383 67.3477 101.383 c 2,35,-1
 73.4453 101.383 l 1,36,-1
 73.4453 135.898 l 2,37,38
 73.4453 142.005 73.4453 142.005 77.7399 146.299 c 128,-1,39
 82.0344 150.594 82.0344 150.594 88.1406 150.594 c 0,16,17
EndSplineSet
EndChar

StartChar: l
Encoding: 108 108 28
Width: 256
VWidth: 0
Flags: W
HStem: -51 54.4062<49.7967 67.3477 188.652 206.203> 130.594 20G<85.0875 196.174>
VStem: 0 30.0234<26.8049 77.9841> 225.977 30.0234<26.8049 77.9841>
LayerCount: 2
Fore
SplineSet
192.5 150.594 m 2,0,1
 199.848 150.594 199.848 150.594 199.848 143.246 c 128,-1,2
 199.848 135.898 199.848 135.898 192.5 135.898 c 2,3,-1
 102.838 135.898 l 1,4,-1
 102.838 101.383 l 1,5,-1
 188.652 101.383 l 2,6,7
 204.104 101.383 204.104 101.383 215.04 87.0291 c 128,-1,8
 225.977 72.6753 225.977 72.6753 225.977 52.3945 c 128,-1,9
 225.977 32.1138 225.977 32.1138 215.04 17.76 c 128,-1,10
 204.104 3.40625 204.104 3.40625 188.652 3.40625 c 2,11,-1
 67.3477 3.40625 l 2,12,13
 51.8957 3.40625 51.8957 3.40625 40.9596 17.76 c 128,-1,14
 30.0234 32.1138 30.0234 32.1138 30.0234 52.3945 c 128,-1,15
 30.0234 72.6753 30.0234 72.6753 40.9596 87.0291 c 128,-1,16
 51.8957 101.383 51.8957 101.383 67.3477 101.383 c 2,17,-1
 73.4453 101.383 l 1,18,-1
 73.4453 135.898 l 2,19,20
 73.4453 142.005 73.4453 142.005 77.7399 146.299 c 128,-1,21
 82.0344 150.594 82.0344 150.594 88.1406 150.594 c 0,22,-1
 192.5 150.594 l 2,0,1
EndSplineSet
EndChar

StartChar: M
Encoding: 77 77 29
Width: 256
VWidth: 0
Flags: W
HStem: -51 43.9531<56.1568 75.8223 180.178 199.843> 161.285 43.7148<119.168 136.832>
VStem: 0 43.7148<4.46388 34.1224> 212.285 43.7148<4.46388 19.293 19.2939 34.123>
LayerCount: 2
Fore
SplineSet
48 205 m 2,0,1
 28 205 28 205 14 191 c 128,-1,2
 0 177 0 177 0 157 c 2,3,-1
 0 -3 l 2,4,5
 0 -23 0 -23 14 -37 c 128,-1,6
 28 -51 28 -51 48 -51 c 2,7,-1
 208 -51 l 2,8,9
 228 -51 228 -51 242 -37 c 128,-1,10
 256 -23 256 -23 256 -3 c 2,11,-1
 256 157 l 2,12,13
 256 177 256 177 242 191 c 128,-1,14
 228 205 228 205 208 205 c 2,15,-1
 48 205 l 2,0,1
128 161.285 m 128,-1,17
 133.253 161.285 133.253 161.285 136.948 156.667 c 128,-1,18
 140.643 152.049 140.643 152.049 140.643 145.482 c 2,19,-1
 140.643 61.0293 l 1,20,-1
 171.771 61.0293 l 2,21,22
 175.986 61.0293 175.986 61.0293 175.986 55.7617 c 2,23,-1
 175.986 50.4941 l 2,24,25
 175.986 46.9831 175.986 46.9831 173.4 45.6328 c 1,26,-1
 180.178 45.6328 l 2,27,28
 193.47 45.6328 193.47 45.6328 202.878 37.9156 c 128,-1,29
 212.285 30.1983 212.285 30.1983 212.285 19.2939 c 0,30,-1
 212.285 19.293 l 2,31,32
 212.285 8.3887 212.285 8.3887 202.878 0.671279 c 128,-1,33
 193.47 -7.04614 193.47 -7.04614 180.178 -7.04688 c 2,34,-1
 130.125 -7.04688 l 2,35,36
 128.983 -7.28516 128.983 -7.28516 128 -7.28516 c 128,-1,37
 127.015 -7.28516 127.015 -7.28516 125.875 -7.04688 c 2,38,-1
 75.8223 -7.04688 l 2,39,40
 62.5295 -7.04614 62.5295 -7.04614 53.1222 0.671279 c 128,-1,41
 43.7148 8.3887 43.7148 8.3887 43.7148 19.293 c 128,-1,42
 43.7148 30.1974 43.7148 30.1974 53.1223 37.9151 c 128,-1,43
 62.5297 45.6328 62.5297 45.6328 75.8223 45.6328 c 2,44,-1
 85.8555 45.6328 l 1,45,46
 83.2715 46.9821 83.2715 46.9821 83.2715 50.4941 c 2,47,-1
 83.2715 55.7617 l 2,48,49
 83.2715 61.0293 83.2715 61.0293 87.4863 61.0293 c 2,50,-1
 115.357 61.0293 l 1,51,-1
 115.357 145.482 l 2,52,53
 115.357 152.049 115.357 152.049 119.052 156.667 c 128,-1,16
 122.747 161.285 122.747 161.285 128 161.285 c 128,-1,17
EndSplineSet
EndChar

StartChar: m
Encoding: 109 109 30
Width: 256
VWidth: 0
Flags: W
HStem: -51 43.9531<56.1568 75.8223 180.178 199.843> 161.285 43.7148<119.168 136.832>
VStem: 0 43.7148<4.46388 34.1224> 212.285 43.7148<4.46388 19.293 19.2939 34.123>
LayerCount: 2
Fore
SplineSet
128 161.285 m 128,-1,1
 133.253 161.285 133.253 161.285 136.948 156.667 c 128,-1,2
 140.643 152.049 140.643 152.049 140.643 145.482 c 2,3,-1
 140.643 61.0293 l 1,4,-1
 171.771 61.0293 l 2,5,6
 175.986 61.0293 175.986 61.0293 175.986 55.7617 c 2,7,-1
 175.986 50.4941 l 2,8,9
 175.986 46.9831 175.986 46.9831 173.4 45.6328 c 1,10,-1
 180.178 45.6328 l 2,11,12
 193.47 45.6328 193.47 45.6328 202.878 37.9156 c 128,-1,13
 212.285 30.1983 212.285 30.1983 212.285 19.2939 c 0,14,-1
 212.285 19.293 l 2,15,16
 212.285 8.3887 212.285 8.3887 202.878 0.671279 c 128,-1,17
 193.47 -7.04614 193.47 -7.04614 180.178 -7.04688 c 2,18,-1
 130.125 -7.04688 l 2,19,20
 128.983 -7.28516 128.983 -7.28516 128 -7.28516 c 128,-1,21
 127.015 -7.28516 127.015 -7.28516 125.875 -7.04688 c 2,22,-1
 75.8223 -7.04688 l 2,23,24
 62.5295 -7.04614 62.5295 -7.04614 53.1222 0.671279 c 128,-1,25
 43.7148 8.3887 43.7148 8.3887 43.7148 19.293 c 128,-1,26
 43.7148 30.1974 43.7148 30.1974 53.1223 37.9151 c 128,-1,27
 62.5297 45.6328 62.5297 45.6328 75.8223 45.6328 c 2,28,-1
 85.8555 45.6328 l 1,29,30
 83.2715 46.9821 83.2715 46.9821 83.2715 50.4941 c 2,31,-1
 83.2715 55.7617 l 2,32,33
 83.2715 61.0293 83.2715 61.0293 87.4863 61.0293 c 2,34,-1
 115.357 61.0293 l 1,35,-1
 115.357 145.482 l 2,36,37
 115.357 152.049 115.357 152.049 119.052 156.667 c 128,-1,0
 122.747 161.285 122.747 161.285 128 161.285 c 128,-1,1
EndSplineSet
EndChar

StartChar: n
Encoding: 110 110 31
Width: 256
VWidth: 0
Flags: W
LayerCount: 2
Fore
SplineSet
24 -6 m 5,0,-1
 27 3 l 5,1,-1
 90 -13 l 5,2,-1
 125 29 l 5,3,4
 123 37 123 37 123 39 c 4,5,6
 123 40 123 40 120 59 c 4,7,8
 119 65.5 119 65.5 119 69.5 c 132,-1,9
 119 73.5 119 73.5 120 75 c 5,10,11
 126 95 126 95 134 106 c 5,12,-1
 143 116 l 5,13,-1
 158 127 l 5,14,-1
 135 122 l 5,15,-1
 128 119 l 5,16,-1
 118 109 l 5,17,-1
 108 102 l 5,18,-1
 114 103 l 5,19,-1
 116 101 l 5,20,-1
 6 75 l 5,21,-1
 5 79 l 5,22,-1
 91 99 l 5,23,-1
 117 124 l 5,24,-1
 134 135 l 5,25,26
 146.091 143.909 146.091 143.909 156.967 143.909 c 4,27,28
 163.182 143.909 163.182 143.909 169 141 c 4,29,30
 171 140 171 140 177 140 c 5,31,-1
 191 133 l 5,32,33
 191 129.733 191 129.733 184 119 c 6,34,-1
 154 73 l 5,35,36
 190 51 190 51 191 44 c 5,37,-1
 179 -6 l 5,38,39
 234 -3 234 -3 235 -3 c 4,40,41
 240 -2 240 -2 240 0 c 5,42,-1
 246 -2 l 5,43,44
 245 -12 245 -12 237 -12 c 4,45,46
 105 -17 l 5,47,-1
 102 -17 l 5,48,49
 175 -36 l 4,50,51
 178 -38 178 -38 181 -33 c 5,52,-1
 187 -37 l 5,53,54
 183.4 -45.1 183.4 -45.1 176.56 -45.1 c 4,55,56
 175.8 -45.1 175.8 -45.1 175 -45 c 5,57,-1
 24 -6 l 5,0,-1
143 56 m 5,58,-1
 143 21 l 5,59,-1
 115 -8 l 5,60,-1
 163 -6 l 5,61,-1
 170 41 l 5,62,-1
 143 56 l 5,58,-1
214 152 m 4,63,64
 214 145 214 145 209 140 c 132,-1,65
 204 135 204 135 197 135 c 4,66,67
 189 135 189 135 184 140 c 132,-1,68
 179 145 179 145 179 152 c 4,69,70
 179 160 179 160 184 165 c 132,-1,71
 189 170 189 170 197 170 c 4,72,73
 204 170 204 170 209 165 c 132,-1,74
 214 160 214 160 214 152 c 4,63,64
EndSplineSet
EndChar

StartChar: o
Encoding: 111 111 32
Width: 256
VWidth: 0
Flags: W
LayerCount: 2
Fore
SplineSet
242 -3 m 0,0,1
 246 -1 246 -1 251 2 c 25,2,3
 248 -6 248 -6 244 -7 c 4,4,-1
 179 -9 l 5,5,-1
 179 -10 l 4,6,7
 179 -18 179 -18 170 -20 c 0,8,9
 166 -21 166 -21 128 -21 c 1,10,-1
 127 -30 l 1,11,-1
 124 -30 l 1,12,-1
 125 -21 l 1,13,-1
 4 -21 l 1,14,-1
 4 -17 l 1,15,-1
 73 -17 l 1,16,-1
 63 -3 l 1,17,-1
 103 32 l 1,18,-1
 103 65 l 1,19,20
 98 67 98 67 97 70 c 1,21,-1
 97 82 l 1,22,-1
 91 72 l 1,23,24
 84 71 84 71 76 71 c 0,25,26
 71 71 71 71 69 72 c 1,27,28
 68 84 68 84 68 97 c 0,29,30
 70 133 70 133 73 141 c 1,31,32
 75 143 75 143 80 143 c 128,-1,33
 85 143 85 143 92 142 c 2,34,-1
 99 141 l 1,35,-1
 102 132 l 0,36,37
 105 143 105 143 117 143 c 128,-1,38
 129 143 129 143 129 137 c 1,39,-1
 129 123 l 1,40,-1
 141 123 l 1,41,-1
 149 131 l 1,42,-1
 157 132 l 1,43,-1
 160 125 l 1,44,-1
 158 123 l 2,45,-1
 202 26 l 1,46,-1
 200 25 l 1,47,-1
 156 120 l 1,48,49
 149 113 149 113 146 112 c 1,50,-1
 128 112 l 1,51,-1
 128 97 l 1,52,-1
 144 97 l 2,53,54
 144 96 144 96 145 96 c 128,-1,55
 146 96 146 96 147 94 c 0,56,57
 148 90 148 90 148 89 c 0,58,59
 147 83 147 83 144 84 c 0,60,61
 142 85 142 85 141 85 c 1,62,-1
 139 66 l 1,63,64
 150 51 150 51 152 50 c 1,65,-1
 152 6 l 1,66,-1
 161 5 l 1,67,-1
 164 -3 l 1,68,-1
 242 -3 l 0,0,1
127 86 m 1,69,-1
 125 83 l 1,70,71
 131 76 131 76 136 70 c 1,72,-1
 138 85 l 1,73,-1
 127 86 l 1,69,-1
123 63 m 1,74,75
 122 32 122 32 120 27 c 1,76,-1
 85 2 l 1,77,-1
 89 -5 l 1,78,79
 100 -5 100 -5 127 -5 c 1,80,-1
 134 50 l 1,81,-1
 123 63 l 1,74,75
136 47 m 1,82,-1
 130 -5 l 1,83,-1
 132 -5 l 0,84,-1
 135 -5 l 1,85,-1
 134 -2 l 1,86,-1
 139 43 l 1,87,-1
 136 47 l 1,82,-1
178 -9 m 5,88,89
 154 -9 154 -9 129 -10 c 5,90,-1
 129 -16 l 1,91,92
 146 -16 l 0,93,94
 177 -16 177 -16 178 -9 c 5,88,89
126 -10 m 4,95,-1
 126 -16 l 1,96,97
 109 -16 109 -16 80 -17 c 1,98,-1
 83 -10 l 6,99,100
 96 -10 l 4,101,102
 107 -10 107 -10 126 -10 c 4,95,-1
110 160.5 m 128,-1,104
 110 177 110 177 126 177 c 128,-1,105
 142 177 142 177 142 160.5 c 128,-1,106
 142 144 142 144 126 144 c 128,-1,103
 110 144 110 144 110 160.5 c 128,-1,104
EndSplineSet
EndChar

StartChar: N
Encoding: 78 78 33
Width: 256
Flags: W
LayerCount: 2
Fore
SplineSet
24 -6 m 1,0,-1
 27 3 l 1,1,-1
 90 -13 l 1,2,-1
 125 29 l 1,3,4
 123 37 123 37 123 39 c 0,5,6
 123 40 123 40 120 59 c 0,7,8
 119 65.5 119 65.5 119 69.5 c 128,-1,9
 119 73.5 119 73.5 120 75 c 1,10,11
 126 95 126 95 134 106 c 1,12,-1
 143 116 l 1,13,-1
 158 127 l 1,14,-1
 135 122 l 1,15,-1
 128 119 l 1,16,-1
 118 109 l 1,17,-1
 108 102 l 1,18,-1
 114 103 l 1,19,-1
 116 101 l 1,20,-1
 6 75 l 1,21,-1
 5 79 l 1,22,-1
 91 99 l 1,23,-1
 117 124 l 1,24,-1
 134 135 l 1,25,26
 146.091 143.909 146.091 143.909 156.967 143.909 c 0,27,28
 163.182 143.909 163.182 143.909 169 141 c 0,29,30
 171 140 171 140 177 140 c 1,31,-1
 191 133 l 1,32,33
 191 129.733 191 129.733 184 119 c 2,34,-1
 154 73 l 1,35,36
 190 51 190 51 191 44 c 1,37,-1
 179 -6 l 1,38,39
 234 -3 234 -3 235 -3 c 0,40,41
 240 -2 240 -2 240 0 c 1,42,-1
 246 -2 l 1,43,44
 245 -12 245 -12 237 -12 c 0,45,46
 105 -17 l 1,47,-1
 102 -17 l 1,48,49
 175 -36 l 0,50,51
 178 -38 178 -38 181 -33 c 1,52,-1
 187 -37 l 1,53,54
 183.4 -45.1 183.4 -45.1 176.56 -45.1 c 0,55,56
 175.8 -45.1 175.8 -45.1 175 -45 c 1,57,-1
 24 -6 l 1,0,-1
143 56 m 1,58,-1
 143 21 l 1,59,-1
 115 -8 l 1,60,-1
 163 -6 l 1,61,-1
 170 41 l 1,62,-1
 143 56 l 1,58,-1
214 152 m 0,63,64
 214 145 214 145 209 140 c 128,-1,65
 204 135 204 135 197 135 c 0,66,67
 189 135 189 135 184 140 c 128,-1,68
 179 145 179 145 179 152 c 0,69,70
 179 160 179 160 184 165 c 128,-1,71
 189 170 189 170 197 170 c 0,72,73
 204 170 204 170 209 165 c 128,-1,74
 214 160 214 160 214 152 c 0,63,64
0 157 m 2,75,-1
 0 -3 l 2,76,77
 0 -39 0 -39 6 -45 c 128,-1,78
 12 -51 12 -51 48 -51 c 2,79,-1
 208 -51 l 2,80,81
 244 -51 244 -51 250 -45 c 128,-1,82
 256 -39 256 -39 256 -3 c 2,83,-1
 256 157 l 2,84,85
 256 193 256 193 250 199 c 128,-1,86
 244 205 244 205 208 205 c 2,87,-1
 48 205 l 2,88,89
 12 205 12 205 6 199 c 128,-1,90
 0 193 0 193 0 157 c 2,75,-1
EndSplineSet
EndChar

StartChar: O
Encoding: 79 79 34
Width: 256
Flags: W
LayerCount: 2
Fore
SplineSet
242 -3 m 0,0,1
 246 -1 246 -1 251 2 c 25,2,3
 248 -6 248 -6 244 -7 c 4,4,-1
 179 -9 l 5,5,-1
 179 -10 l 4,6,7
 179 -18 179 -18 170 -20 c 0,8,9
 166 -21 166 -21 128 -21 c 1,10,-1
 127 -30 l 1,11,-1
 124 -30 l 1,12,-1
 125 -21 l 1,13,-1
 4 -21 l 1,14,-1
 4 -17 l 1,15,-1
 73 -17 l 1,16,-1
 63 -3 l 1,17,-1
 103 32 l 1,18,-1
 103 65 l 1,19,20
 98 67 98 67 97 70 c 1,21,-1
 97 82 l 1,22,-1
 91 72 l 1,23,24
 84 71 84 71 76 71 c 0,25,26
 71 71 71 71 69 72 c 1,27,28
 68 84 68 84 68 97 c 0,29,30
 70 133 70 133 73 141 c 1,31,32
 75 143 75 143 80 143 c 128,-1,33
 85 143 85 143 92 142 c 2,34,-1
 99 141 l 1,35,-1
 102 132 l 0,36,37
 105 143 105 143 117 143 c 128,-1,38
 129 143 129 143 129 137 c 1,39,-1
 129 123 l 1,40,-1
 141 123 l 1,41,-1
 149 131 l 1,42,-1
 157 132 l 1,43,-1
 160 125 l 1,44,-1
 158 123 l 2,45,-1
 202 26 l 1,46,-1
 200 25 l 1,47,-1
 156 120 l 1,48,49
 149 113 149 113 146 112 c 1,50,-1
 128 112 l 1,51,-1
 128 97 l 1,52,-1
 144 97 l 2,53,54
 144 96 144 96 145 96 c 128,-1,55
 146 96 146 96 147 94 c 0,56,57
 148 90 148 90 148 89 c 0,58,59
 147 83 147 83 144 84 c 0,60,61
 142 85 142 85 141 85 c 1,62,-1
 139 66 l 1,63,64
 150 51 150 51 152 50 c 1,65,-1
 152 6 l 1,66,-1
 161 5 l 1,67,-1
 164 -3 l 1,68,-1
 242 -3 l 0,0,1
127 86 m 1,69,-1
 125 83 l 1,70,71
 131 76 131 76 136 70 c 1,72,-1
 138 85 l 1,73,-1
 127 86 l 1,69,-1
123 63 m 1,74,75
 122 32 122 32 120 27 c 1,76,-1
 85 2 l 1,77,-1
 89 -5 l 1,78,79
 100 -5 100 -5 127 -5 c 1,80,-1
 134 50 l 1,81,-1
 123 63 l 1,74,75
136 47 m 1,82,-1
 130 -5 l 1,83,-1
 132 -5 l 0,84,-1
 135 -5 l 1,85,-1
 134 -2 l 1,86,-1
 139 43 l 1,87,-1
 136 47 l 1,82,-1
178 -9 m 5,88,89
 154 -9 154 -9 129 -10 c 5,90,-1
 129 -16 l 1,91,92
 146 -16 l 0,93,94
 177 -16 177 -16 178 -9 c 5,88,89
126 -10 m 4,95,-1
 126 -16 l 1,96,97
 109 -16 109 -16 80 -17 c 1,98,-1
 83 -10 l 6,99,100
 96 -10 l 4,101,102
 107 -10 107 -10 126 -10 c 4,95,-1
110 160.5 m 128,-1,104
 110 177 110 177 126 177 c 128,-1,105
 142 177 142 177 142 160.5 c 128,-1,106
 142 144 142 144 126 144 c 128,-1,103
 110 144 110 144 110 160.5 c 128,-1,104
0 157 m 2,107,-1
 0 -3 l 2,108,109
 0 -39 0 -39 6 -45 c 128,-1,110
 12 -51 12 -51 48 -51 c 2,111,-1
 208 -51 l 2,112,113
 244 -51 244 -51 250 -45 c 128,-1,114
 256 -39 256 -39 256 -3 c 2,115,-1
 256 157 l 2,116,117
 256 193 256 193 250 199 c 128,-1,118
 244 205 244 205 208 205 c 2,119,-1
 48 205 l 2,120,121
 12 205 12 205 6 199 c 128,-1,122
 0 193 0 193 0 157 c 2,107,-1
EndSplineSet
EndChar

StartChar: p
Encoding: 112 112 35
Width: 256
VWidth: 0
LayerCount: 2
Fore
SplineSet
139.318359375 46.900390625 m 5,0,-1
 96.619140625 46.900390625 l 5,1,-1
 96.619140625 52.5 l 6,2,3
 96.619140625 61.599609375 96.619140625 61.599609375 100.818359375 70 c 4,4,5
 104.727539062 77.81640625 104.727539062 77.81640625 116.918945312 88.900390625 c 6,6,-1
 124.619140625 95.900390625 l 6,7,8
 131.39453125 102.059570312 131.39453125 102.059570312 134.418945312 107.099609375 c 4,9,10
 138.018554688 112.5 138.018554688 112.5 138.018554688 116.87109375 c 4,11,12
 138.018554688 117.599609375 138.018554688 117.599609375 137.918945312 118.299804688 c 4,13,14
 137.21875 126 137.21875 126 131.619140625 130.900390625 c 132,-1,15
 126.018554688 135.877929688 126.018554688 135.877929688 118.20703125 135.877929688 c 4,16,17
 117.229492188 135.877929688 117.229492188 135.877929688 116.21875 135.799804688 c 4,18,19
 114.983398438 135.717773438 114.983398438 135.717773438 95.21875 131.599609375 c 4,20,21
 72.119140625 126.787109375 72.119140625 126.787109375 72.119140625 119.700195312 c 6,22,-1
 72.119140625 156.799804688 l 6,23,24
 72.623046875 156.62890625 72.623046875 156.62890625 98.71875 164.150390625 c 4,25,26
 109.286132812 166.599609375 109.286132812 166.599609375 121.119140625 166.599609375 c 4,27,28
 151.3359375 166.599609375 151.3359375 166.599609375 165.21875 154.700195312 c 4,29,30
 178.518554688 143.5 178.518554688 143.5 179.918945312 120.400390625 c 4,31,32
 180.005859375 118.912109375 180.005859375 118.912109375 180.005859375 117.479492188 c 4,33,34
 180.005859375 107.450195312 180.005859375 107.450195312 175.71875 100.099609375 c 4,35,36
 171.051757812 91.93359375 171.051757812 91.93359375 159.619140625 80.5 c 6,37,-1
 152.619140625 73.5 l 6,38,39
 143.051757812 63.93359375 143.051757812 63.93359375 142.119140625 62.2998046875 c 4,40,41
 139.318359375 57.400390625 139.318359375 57.400390625 139.318359375 51.7998046875 c 6,42,-1
 139.318359375 46.900390625 l 5,0,-1
96.619140625 29.400390625 m 5,43,-1
 139.318359375 29.400390625 l 5,44,-1
 139.318359375 -12.599609375 l 5,45,-1
 96.619140625 -12.599609375 l 5,46,-1
 96.619140625 29.400390625 l 5,43,-1
EndSplineSet
EndChar

StartChar: q
Encoding: 113 113 36
Width: 256
VWidth: 0
LayerCount: 2
Fore
SplineSet
97 82 m 9,0,1
 101 128 101 128 102 132 c 16,2,3
 106 143 106 143 117 143 c 0,4,5
 129 143 129 143 129 137 c 1,6,-1
 129 123 l 1,7,-1
 141 123 l 1,8,-1
 149 131 l 1,9,-1
 157 132 l 1,10,-1
 160 125 l 1,11,-1
 158 123 l 2,12,-1
 202 26 l 1,13,-1
 200 25 l 1,14,-1
 156 120 l 1,15,16
 149 113 149 113 146 112 c 1,17,-1
 128 112 l 1,18,-1
 128 97 l 1,19,-1
 144 97 l 2,20,21
 144 96 144 96 145 96 c 128,-1,22
 146 96 146 96 147 94 c 0,23,24
 148 90 148 90 148 89 c 0,25,26
 146 84 146 84 144 84 c 128,-1,27
 142 84 142 84 141 85 c 1,28,-1
 139 66 l 1,29,30
 150 51 150 51 152 50 c 1,31,-1
 152 6 l 1,32,-1
 161 5 l 1,33,-1
 164 -3 l 1,34,-1
 242 -3 l 0,35,36
 246 -1 246 -1 251 2 c 25,37,38
 248 -6 248 -6 244 -7 c 4,39,-1
 179 -9 l 5,40,-1
 179 -10 l 4,41,42
 179 -18 179 -18 170 -20 c 0,43,44
 166 -21 166 -21 128 -21 c 1,45,-1
 127 -30 l 1,46,-1
 124 -30 l 1,47,-1
 125 -21 l 1,48,-1
 4 -21 l 1,49,-1
 4 -17 l 1,50,-1
 73 -17 l 1,51,-1
 63 -3 l 1,52,-1
 103 32 l 1,53,-1
 103 65 l 1,54,55
 98 67 98 67 97 70 c 1,56,-1
 97 82 l 9,0,1
127 86 m 1,57,-1
 125 83 l 1,58,59
 131 76 131 76 136 70 c 1,60,-1
 138 85 l 1,61,-1
 127 86 l 1,57,-1
123 63 m 1,62,63
 122 32 122 32 120 27 c 1,64,-1
 85 2 l 1,65,-1
 89 -5 l 1,66,67
 100 -5 100 -5 127 -5 c 1,68,-1
 134 50 l 1,69,-1
 123 63 l 1,62,63
136 47 m 1,70,-1
 130 -5 l 1,71,-1
 132 -5 l 0,72,-1
 135 -5 l 1,73,-1
 134 -2 l 1,74,-1
 139 43 l 1,75,-1
 136 47 l 1,70,-1
178 -9 m 5,76,77
 154 -9 154 -9 129 -10 c 5,78,-1
 129 -16 l 1,79,-1
 146 -16 l 0,80,81
 177 -16 177 -16 178 -9 c 5,76,77
126 -10 m 4,82,-1
 126 -16 l 1,83,84
 109 -16 109 -16 80 -17 c 1,85,-1
 83 -10 l 6,86,-1
 96 -10 l 4,87,88
 107 -10 107 -10 126 -10 c 4,82,-1
110 160.5 m 128,-1,90
 110 177 110 177 126 177 c 128,-1,91
 142 177 142 177 142 160.5 c 128,-1,92
 142 144 142 144 126 144 c 128,-1,89
 110 144 110 144 110 160.5 c 128,-1,90
EndSplineSet
EndChar

StartChar: P
Encoding: 80 80 37
Width: 256
VWidth: 0
Flags: W
LayerCount: 2
Fore
SplineSet
48 205 m 6,0,1
 28 205 28 205 14 191 c 132,-1,2
 0 177 0 177 -0 157 c 6,3,-1
 0 -3 l 6,4,5
 -0 -23 -0 -23 14 -37 c 132,-1,6
 28 -51 28 -51 48 -51 c 6,7,-1
 208 -51 l 6,8,9
 228 -51 228 -51 242 -36 c 132,-1,10
 256 -21 256 -21 256 -1 c 6,11,-1
 256 157 l 6,12,13
 256 177 256 177 242 191 c 132,-1,14
 228 205 228 205 208 205 c 6,15,-1
 48 205 l 6,0,1
139.318359375 46.900390625 m 1,16,-1
 96.619140625 46.900390625 l 1,17,-1
 96.619140625 52.5 l 2,18,19
 96.619140625 61.599609375 96.619140625 61.599609375 100.818359375 70 c 0,20,21
 104.727539062 77.81640625 104.727539062 77.81640625 116.918945312 88.900390625 c 2,22,-1
 124.619140625 95.900390625 l 2,23,24
 131.39453125 102.059570312 131.39453125 102.059570312 134.418945312 107.099609375 c 0,25,26
 138.018554688 112.5 138.018554688 112.5 138.018554688 116.87109375 c 0,27,28
 138.018554688 117.599609375 138.018554688 117.599609375 137.918945312 118.299804688 c 0,29,30
 137.21875 126 137.21875 126 131.619140625 130.900390625 c 128,-1,31
 126.018554688 135.877929688 126.018554688 135.877929688 118.20703125 135.877929688 c 0,32,33
 117.229492188 135.877929688 117.229492188 135.877929688 116.21875 135.799804688 c 0,34,35
 114.983398438 135.717773438 114.983398438 135.717773438 95.21875 131.599609375 c 0,36,37
 72.119140625 126.787109375 72.119140625 126.787109375 72.119140625 119.700195312 c 2,38,-1
 72.119140625 156.799804688 l 2,39,40
 72.623046875 156.62890625 72.623046875 156.62890625 98.71875 164.150390625 c 0,41,42
 109.286132812 166.599609375 109.286132812 166.599609375 121.119140625 166.599609375 c 0,43,44
 151.3359375 166.599609375 151.3359375 166.599609375 165.21875 154.700195312 c 0,45,46
 178.518554688 143.5 178.518554688 143.5 179.918945312 120.400390625 c 0,47,48
 180.005859375 118.912109375 180.005859375 118.912109375 180.005859375 117.479492188 c 0,49,50
 180.005859375 107.450195312 180.005859375 107.450195312 175.71875 100.099609375 c 0,51,52
 171.051757812 91.93359375 171.051757812 91.93359375 159.619140625 80.5 c 2,53,-1
 152.619140625 73.5 l 2,54,55
 143.051757812 63.93359375 143.051757812 63.93359375 142.119140625 62.2998046875 c 0,56,57
 139.318359375 57.400390625 139.318359375 57.400390625 139.318359375 51.7998046875 c 2,58,-1
 139.318359375 46.900390625 l 1,16,-1
96.619140625 29.400390625 m 1,59,-1
 139.318359375 29.400390625 l 1,60,-1
 139.318359375 -12.599609375 l 1,61,-1
 96.619140625 -12.599609375 l 1,62,-1
 96.619140625 29.400390625 l 1,59,-1
EndSplineSet
EndChar

StartChar: Q
Encoding: 81 81 38
Width: 256
VWidth: 0
Flags: W
HStem: -51 54.4062<49.7967 67.3477 188.652 206.203> 130.594 20G<85.0875 196.174>
VStem: 0 30.0234<26.8049 77.9841> 225.977 30.0234<26.8049 77.9841>
LayerCount: 2
Fore
SplineSet
97 82 m 9,0,1
 101 128 101 128 102 132 c 16,2,3
 106 143 106 143 117 143 c 0,4,5
 129 143 129 143 129 137 c 1,6,-1
 129 123 l 1,7,-1
 141 123 l 1,8,-1
 149 131 l 1,9,-1
 157 132 l 1,10,-1
 160 125 l 1,11,-1
 158 123 l 2,12,-1
 202 26 l 1,13,-1
 200 25 l 1,14,-1
 156 120 l 1,15,16
 149 113 149 113 146 112 c 1,17,-1
 128 112 l 1,18,-1
 128 97 l 1,19,-1
 144 97 l 2,20,21
 144 96 144 96 145 96 c 128,-1,22
 146 96 146 96 147 94 c 0,23,24
 148 90 148 90 148 89 c 0,25,26
 146 84 146 84 144 84 c 128,-1,27
 142 84 142 84 141 85 c 1,28,-1
 139 66 l 1,29,30
 150 51 150 51 152 50 c 1,31,-1
 152 6 l 1,32,-1
 161 5 l 1,33,-1
 164 -3 l 1,34,-1
 242 -3 l 0,35,36
 246 -1 246 -1 251 2 c 25,37,38
 248 -6 248 -6 244 -7 c 0,39,-1
 179 -9 l 1,40,-1
 179 -10 l 0,41,42
 179 -18 179 -18 170 -20 c 0,43,44
 166 -21 166 -21 128 -21 c 1,45,-1
 127 -30 l 1,46,-1
 124 -30 l 1,47,-1
 125 -21 l 1,48,-1
 4 -21 l 1,49,-1
 4 -17 l 1,50,-1
 73 -17 l 1,51,-1
 63 -3 l 1,52,-1
 103 32 l 1,53,-1
 103 65 l 1,54,55
 98 67 98 67 97 70 c 1,56,-1
 97 82 l 9,0,1
127 86 m 1,57,-1
 125 83 l 1,58,59
 131 76 131 76 136 70 c 1,60,-1
 138 85 l 1,61,-1
 127 86 l 1,57,-1
123 63 m 1,62,63
 122 32 122 32 120 27 c 1,64,-1
 85 2 l 1,65,-1
 89 -5 l 1,66,67
 100 -5 100 -5 127 -5 c 1,68,-1
 134 50 l 1,69,-1
 123 63 l 1,62,63
136 47 m 1,70,-1
 130 -5 l 1,71,-1
 132 -5 l 0,72,-1
 135 -5 l 1,73,-1
 134 -2 l 1,74,-1
 139 43 l 1,75,-1
 136 47 l 1,70,-1
178 -9 m 1,76,77
 154 -9 154 -9 129 -10 c 1,78,-1
 129 -16 l 1,79,-1
 146 -16 l 0,80,81
 177 -16 177 -16 178 -9 c 1,76,77
126 -10 m 0,82,-1
 126 -16 l 1,83,84
 109 -16 109 -16 80 -17 c 1,85,-1
 83 -10 l 2,86,-1
 96 -10 l 0,87,88
 107 -10 107 -10 126 -10 c 0,82,-1
110 160.5 m 128,-1,90
 110 177 110 177 126 177 c 128,-1,91
 142 177 142 177 142 160.5 c 128,-1,92
 142 144 142 144 126 144 c 128,-1,89
 110 144 110 144 110 160.5 c 128,-1,90
48 205 m 6,93,94
 28 205 28 205 14 191 c 132,-1,95
 0 177 0 177 -0 157 c 6,96,-1
 0 -3 l 6,97,98
 -0 -23 -0 -23 14 -37 c 132,-1,99
 28 -51 28 -51 48 -51 c 6,100,-1
 208 -51 l 6,101,102
 228 -51 228 -51 242 -36 c 132,-1,103
 256 -21 256 -21 256 -1 c 6,104,-1
 256 157 l 6,105,106
 256 177 256 177 242 191 c 132,-1,107
 228 205 228 205 208 205 c 6,108,-1
 48 205 l 6,93,94
EndSplineSet
EndChar

StartChar: r
Encoding: 114 114 39
Width: 256
VWidth: 0
LayerCount: 2
Fore
SplineSet
165.973632812 149.959960938 m 128,-1,1
 172.689453125 149.959960938 172.689453125 149.959960938 177.438476562 145.2109375 c 128,-1,2
 182.186523438 140.462890625 182.186523438 140.462890625 182.186523438 133.747070312 c 128,-1,3
 182.186523438 127.03125 182.186523438 127.03125 177.438476562 122.282226562 c 128,-1,4
 172.689453125 117.533203125 172.689453125 117.533203125 165.973632812 117.533203125 c 128,-1,5
 159.2578125 117.533203125 159.2578125 117.533203125 154.508789062 122.282226562 c 128,-1,6
 149.760742188 127.03125 149.760742188 127.03125 149.760742188 133.747070312 c 128,-1,7
 149.760742188 140.462890625 149.760742188 140.462890625 154.508789062 145.2109375 c 128,-1,0
 159.2578125 149.959960938 159.2578125 149.959960938 165.973632812 149.959960938 c 128,-1,1
135.889648438 117.62890625 m 2,8,-1
 141.907226562 117.62890625 l 2,9,10
 145.83203125 117.477539062 145.83203125 117.477539062 148.146484375 114.303710938 c 2,11,-1
 157.866210938 101.3203125 l 1,12,-1
 170.026367188 85.1064453125 l 1,13,-1
 190.293945312 85.1064453125 l 2,14,15
 195.465820312 85.1796875 195.465820312 85.1796875 197.6015625 81.0888671875 c 128,-1,16
 199.737304688 76.9970703125 199.737304688 76.9970703125 197.6015625 72.9072265625 c 128,-1,17
 195.465820312 68.81640625 195.465820312 68.81640625 190.293945312 68.8935546875 c 2,18,-1
 165.974609375 68.8935546875 l 2,19,20
 161.919921875 68.8857421875 161.919921875 68.8857421875 159.482421875 72.125 c 2,21,-1
 147.348632812 88.3134765625 l 1,22,-1
 117.872070312 60.4072265625 l 1,23,-1
 130.318359375 51.0654296875 l 2,24,25
 133.5546875 48.6240234375 133.5546875 48.6240234375 133.547851562 44.5732421875 c 2,26,-1
 133.547851562 -4.06640625 l 2,27,28
 133.62109375 -9.2392578125 133.62109375 -9.2392578125 129.529296875 -11.3759765625 c 128,-1,29
 125.4375 -13.51171875 125.4375 -13.51171875 121.34765625 -11.3759765625 c 128,-1,30
 117.256835938 -9.2392578125 117.256835938 -9.2392578125 117.333984375 -4.06640625 c 2,31,-1
 117.333984375 40.51953125 l 1,32,-1
 88.1376953125 62.4013671875 l 2,33,34
 80.4384765625 68.1787109375 80.4384765625 68.1787109375 87.439453125 74.783203125 c 2,35,-1
 130.252929688 115.317382812 l 2,36,37
 132.60546875 117.6171875 132.60546875 117.6171875 135.889648438 117.62890625 c 2,8,-1
55.0400390625 57.7998046875 m 128,-1,39
 76.248046875 57.7998046875 76.248046875 57.7998046875 91.244140625 42.8037109375 c 128,-1,40
 106.240234375 27.8076171875 106.240234375 27.8076171875 106.240234375 6.599609375 c 128,-1,41
 106.240234375 -14.607421875 106.240234375 -14.607421875 91.244140625 -29.603515625 c 128,-1,42
 76.248046875 -44.599609375 76.248046875 -44.599609375 55.0400390625 -44.599609375 c 128,-1,43
 33.83203125 -44.599609375 33.83203125 -44.599609375 18.8359375 -29.603515625 c 128,-1,44
 3.8408203125 -14.607421875 3.8408203125 -14.607421875 3.8408203125 6.599609375 c 128,-1,45
 3.8408203125 27.8076171875 3.8408203125 27.8076171875 18.8359375 42.8037109375 c 128,-1,38
 33.83203125 57.7998046875 33.83203125 57.7998046875 55.0400390625 57.7998046875 c 128,-1,39
200.959960938 57.7998046875 m 0,46,47
 222.16796875 57.7998046875 222.16796875 57.7998046875 237.1640625 42.8037109375 c 128,-1,48
 252.159179688 27.8076171875 252.159179688 27.8076171875 252.159179688 6.599609375 c 128,-1,49
 252.159179688 -14.607421875 252.159179688 -14.607421875 237.1640625 -29.603515625 c 128,-1,50
 222.16796875 -44.599609375 222.16796875 -44.599609375 200.959960938 -44.599609375 c 0,51,52
 187.05078125 -44.599609375 187.05078125 -44.599609375 175.256835938 -37.748046875 c 128,-1,53
 163.462890625 -30.896484375 163.462890625 -30.896484375 156.611328125 -19.1025390625 c 128,-1,54
 149.760742188 -7.30859375 149.760742188 -7.30859375 149.760742188 6.599609375 c 128,-1,55
 149.760742188 20.5078125 149.760742188 20.5078125 156.611328125 32.3017578125 c 128,-1,56
 163.462890625 44.0966796875 163.462890625 44.0966796875 175.256835938 50.9482421875 c 128,-1,57
 187.05078125 57.7998046875 187.05078125 57.7998046875 200.959960938 57.7998046875 c 0,46,47
55.0400390625 33.48046875 m 0,58,59
 47.7373046875 33.48046875 47.7373046875 33.48046875 41.5458984375 29.8837890625 c 128,-1,60
 35.353515625 26.2861328125 35.353515625 26.2861328125 31.7568359375 20.0947265625 c 128,-1,61
 28.16015625 13.90234375 28.16015625 13.90234375 28.16015625 6.599609375 c 0,62,63
 28.16015625 -4.53515625 28.16015625 -4.53515625 36.0322265625 -12.4072265625 c 128,-1,64
 43.9052734375 -20.2802734375 43.9052734375 -20.2802734375 55.0400390625 -20.2802734375 c 128,-1,65
 66.1748046875 -20.2802734375 66.1748046875 -20.2802734375 74.0478515625 -12.4072265625 c 128,-1,66
 81.9208984375 -4.53515625 81.9208984375 -4.53515625 81.9208984375 6.599609375 c 128,-1,67
 81.9208984375 17.734375 81.9208984375 17.734375 74.0478515625 25.607421875 c 128,-1,68
 66.1748046875 33.48046875 66.1748046875 33.48046875 55.0400390625 33.48046875 c 0,58,59
200.959960938 33.48046875 m 128,-1,70
 189.825195312 33.48046875 189.825195312 33.48046875 181.952148438 25.607421875 c 128,-1,71
 174.080078125 17.734375 174.080078125 17.734375 174.080078125 6.599609375 c 128,-1,72
 174.080078125 -4.53515625 174.080078125 -4.53515625 181.952148438 -12.4072265625 c 128,-1,73
 189.825195312 -20.2802734375 189.825195312 -20.2802734375 200.959960938 -20.2802734375 c 128,-1,74
 212.094726562 -20.2802734375 212.094726562 -20.2802734375 219.967773438 -12.4072265625 c 128,-1,75
 227.840820312 -4.53515625 227.840820312 -4.53515625 227.840820312 6.599609375 c 128,-1,76
 227.840820312 17.734375 227.840820312 17.734375 219.967773438 25.607421875 c 128,-1,69
 212.094726562 33.48046875 212.094726562 33.48046875 200.959960938 33.48046875 c 128,-1,70
EndSplineSet
EndChar

StartChar: s
Encoding: 115 115 40
Width: 256
VWidth: 0
Flags: W
LayerCount: 2
Fore
SplineSet
108.301757812 191.290039062 m 128,-1,1
 104.5390625 201.626953125 104.5390625 201.626953125 109.237304688 203.336914062 c 128,-1,2
 113.936523438 205.046875 113.936523438 205.046875 117.698242188 194.709960938 c 128,-1,3
 121.4609375 184.373046875 121.4609375 184.373046875 116.762695312 182.663085938 c 128,-1,0
 112.063476562 180.953125 112.063476562 180.953125 108.301757812 191.290039062 c 128,-1,1
87.169921875 174.786132812 m 0,4,5
 80 183 80 183 83.9296875 186.426757812 c 128,-1,6
 88 190 88 190 94.830078125 181.213867188 c 0,7,8
 102 173 102 173 98.0703125 169.573242188 c 128,-1,9
 94 166 94 166 87.169921875 174.786132812 c 0,4,5
153.169921875 181.213867188 m 0,10,11
 160 190 160 190 164.0703125 186.426757812 c 128,-1,12
 168 183 168 183 160.830078125 174.786132812 c 0,13,14
 154 166 154 166 149.9296875 169.573242188 c 128,-1,15
 146 173 146 173 153.169921875 181.213867188 c 0,10,11
130.301757812 194.709960938 m 0,16,17
 134 205 134 205 138.762695312 203.336914062 c 0,18,19
 143 202 143 202 139.698242188 191.290039062 c 0,20,21
 136 181 136 181 131.237304688 182.663085938 c 0,22,23
 127 184 127 184 130.301757812 194.709960938 c 0,16,17
231.7578125 137.280273438 m 1,24,-1
 217.118164062 137.280273438 l 1,25,-1
 217.118164062 139.19921875 l 2,26,27
 217.118164062 142.319335938 217.118164062 142.319335938 218.557617188 145.19921875 c 128,-1,28
 219.8984375 147.879882812 219.8984375 147.879882812 224.078125 151.6796875 c 2,29,-1
 226.71875 154.080078125 l 2,30,31
 229.041015625 156.19140625 229.041015625 156.19140625 230.078125 157.918945312 c 128,-1,32
 231.3125 159.770507812 231.3125 159.770507812 231.3125 161.26953125 c 0,33,34
 231.3125 161.51953125 231.3125 161.51953125 231.278320312 161.759765625 c 0,35,36
 231.038085938 164.399414062 231.038085938 164.399414062 229.118164062 166.080078125 c 128,-1,37
 227.197265625 167.786132812 227.197265625 167.786132812 224.51953125 167.786132812 c 0,38,39
 224.184570312 167.786132812 224.184570312 167.786132812 223.837890625 167.759765625 c 128,-1,40
 223.415039062 167.731445312 223.415039062 167.731445312 216.637695312 166.319335938 c 0,41,42
 208.71875 164.668945312 208.71875 164.668945312 208.71875 162.240234375 c 2,43,-1
 208.71875 174.958984375 l 2,44,45
 208.890625 174.900390625 208.890625 174.900390625 217.837890625 177.48046875 c 0,46,47
 221.4609375 178.319335938 221.4609375 178.319335938 225.518554688 178.319335938 c 0,48,49
 235.877929688 178.319335938 235.877929688 178.319335938 240.637695312 174.240234375 c 0,50,51
 245.197265625 170.399414062 245.197265625 170.399414062 245.677734375 162.48046875 c 0,52,53
 245.70703125 161.96875 245.70703125 161.96875 245.70703125 161.478515625 c 0,54,55
 245.70703125 158.040039062 245.70703125 158.040039062 244.23828125 155.51953125 c 0,56,57
 242.638671875 152.719726562 242.638671875 152.719726562 238.71875 148.799804688 c 2,58,-1
 236.318359375 146.399414062 l 2,59,60
 233.038085938 143.119140625 233.038085938 143.119140625 232.71875 142.559570312 c 0,61,62
 231.7578125 140.879882812 231.7578125 140.879882812 231.7578125 138.958984375 c 2,63,-1
 231.7578125 137.280273438 l 1,24,-1
217.118164062 131.280273438 m 1,64,-1
 231.7578125 131.280273438 l 1,65,-1
 231.7578125 116.879882812 l 1,66,-1
 217.118164062 116.879882812 l 1,67,-1
 217.118164062 131.280273438 l 1,64,-1
97 82 m 9,68,69
 101 128 101 128 102 132 c 0,70,71
 105 143 105 143 117 143 c 128,-1,72
 129 143 129 143 129 137 c 2,73,-1
 129 123 l 1,74,-1
 141 123 l 1,75,-1
 149 131 l 1,76,-1
 157 132 l 1,77,-1
 160 125 l 1,78,-1
 158 123 l 1,79,-1
 202 26 l 1,80,-1
 200 25 l 1,81,-1
 156 120 l 1,82,83
 148 112 148 112 146 112 c 2,84,-1
 128 112 l 1,85,-1
 128 97 l 1,86,-1
 144 97 l 2,87,88
 144 96 144 96 145 96 c 128,-1,89
 146 96 146 96 147 94 c 0,90,91
 148 90 148 90 148 89 c 0,92,93
 146 84 146 84 144 84 c 0,94,95
 140.894736842 84 140.894736842 84 141 85 c 2,96,-1
 139 66 l 1,97,98
 150 51 150 51 152 50 c 2,99,-1
 152 6 l 1,100,-1
 161 5 l 1,101,-1
 164 -3 l 1,102,-1
 242 -3 l 2,103,104
 243 -3 243 -3 251 2 c 1,105,106
 248.041450777 -6.87564766839 248.041450777 -6.87564766839 244 -7 c 2,107,-1
 179 -9 l 1,108,-1
 179 -10 l 2,109,110
 179 -18 179 -18 170 -20 c 0,111,112
 166 -21 166 -21 128 -21 c 1,113,-1
 127 -30 l 1,114,-1
 124 -30 l 1,115,-1
 125 -21 l 1,116,-1
 4 -21 l 1,117,-1
 4 -17 l 1,118,-1
 73 -17 l 1,119,-1
 63 -3 l 1,120,-1
 103 32 l 1,121,-1
 103 65 l 1,122,123
 97 67 97 67 97 70 c 2,124,-1
 97 82 l 9,68,69
127 86 m 1,125,-1
 125 83 l 1,126,127
 131 76 131 76 136 70 c 1,128,-1
 138 85 l 1,129,-1
 127 86 l 1,125,-1
123 63 m 1,130,131
 122.0125 28.4375 122.0125 28.4375 120 27 c 2,132,-1
 85 2 l 1,133,-1
 89 -5 l 1,134,-1
 127 -5 l 1,135,-1
 134 50 l 1,136,-1
 123 63 l 1,130,131
136 47 m 1,137,-1
 130 -5 l 1,138,-1
 132 -5 l 1,139,-1
 135 -5 l 1,140,-1
 134 -2 l 1,141,-1
 139 43 l 1,142,-1
 136 47 l 1,137,-1
178 -9 m 1,143,144
 154 -9 154 -9 129 -10 c 1,145,-1
 129 -16 l 1,146,-1
 146 -16 l 2,147,148
 177 -16 177 -16 178 -9 c 1,143,144
126 -10 m 1,149,-1
 126 -16 l 1,150,151
 109 -16 109 -16 80 -17 c 1,152,-1
 83 -10 l 1,153,-1
 96 -10 l 1,154,-1
 126 -10 l 1,149,-1
110 160.5 m 128,-1,156
 110 177 110 177 126 177 c 128,-1,157
 142 177 142 177 142 160.25 c 0,158,159
 142 144 142 144 125.5 144.25 c 0,160,155
 110 144 110 144 110 160.5 c 128,-1,156
EndSplineSet
EndChar

StartChar: R
Encoding: 82 82 41
Width: 256
VWidth: 0
Flags: W
LayerCount: 2
Fore
SplineSet
48 205 m 6,0,1
 28 205 28 205 14 191 c 132,-1,2
 0 177 0 177 -0 157 c 6,3,-1
 0 -3 l 6,4,5
 -0 -23 -0 -23 14 -37 c 132,-1,6
 28 -51 28 -51 48 -51 c 6,7,-1
 208 -51 l 6,8,9
 228 -51 228 -51 242 -36 c 132,-1,10
 256 -21 256 -21 256 -1 c 6,11,-1
 256 157 l 6,12,13
 256 177 256 177 242 191 c 132,-1,14
 228 205 228 205 208 205 c 6,15,-1
 48 205 l 6,0,1
165.973632812 149.959960938 m 128,-1,17
 172.689453125 149.959960938 172.689453125 149.959960938 177.438476562 145.2109375 c 128,-1,18
 182.186523438 140.462890625 182.186523438 140.462890625 182.186523438 133.747070312 c 128,-1,19
 182.186523438 127.03125 182.186523438 127.03125 177.438476562 122.282226562 c 128,-1,20
 172.689453125 117.533203125 172.689453125 117.533203125 165.973632812 117.533203125 c 128,-1,21
 159.2578125 117.533203125 159.2578125 117.533203125 154.508789062 122.282226562 c 128,-1,22
 149.760742188 127.03125 149.760742188 127.03125 149.760742188 133.747070312 c 128,-1,23
 149.760742188 140.462890625 149.760742188 140.462890625 154.508789062 145.2109375 c 128,-1,16
 159.2578125 149.959960938 159.2578125 149.959960938 165.973632812 149.959960938 c 128,-1,17
135.889648438 117.62890625 m 2,24,-1
 141.907226562 117.62890625 l 2,25,26
 145.83203125 117.477539062 145.83203125 117.477539062 148.146484375 114.303710938 c 2,27,-1
 157.866210938 101.3203125 l 1,28,-1
 170.026367188 85.1064453125 l 1,29,-1
 190.293945312 85.1064453125 l 2,30,31
 195.465820312 85.1796875 195.465820312 85.1796875 197.6015625 81.0888671875 c 128,-1,32
 199.737304688 76.9970703125 199.737304688 76.9970703125 197.6015625 72.9072265625 c 128,-1,33
 195.465820312 68.81640625 195.465820312 68.81640625 190.293945312 68.8935546875 c 2,34,-1
 165.974609375 68.8935546875 l 2,35,36
 161.919921875 68.8857421875 161.919921875 68.8857421875 159.482421875 72.125 c 2,37,-1
 147.348632812 88.3134765625 l 1,38,-1
 117.872070312 60.4072265625 l 1,39,-1
 130.318359375 51.0654296875 l 2,40,41
 133.5546875 48.6240234375 133.5546875 48.6240234375 133.547851562 44.5732421875 c 2,42,-1
 133.547851562 -4.06640625 l 2,43,44
 133.62109375 -9.2392578125 133.62109375 -9.2392578125 129.529296875 -11.3759765625 c 128,-1,45
 125.4375 -13.51171875 125.4375 -13.51171875 121.34765625 -11.3759765625 c 128,-1,46
 117.256835938 -9.2392578125 117.256835938 -9.2392578125 117.333984375 -4.06640625 c 2,47,-1
 117.333984375 40.51953125 l 1,48,-1
 88.1376953125 62.4013671875 l 2,49,50
 80.4384765625 68.1787109375 80.4384765625 68.1787109375 87.439453125 74.783203125 c 2,51,-1
 130.252929688 115.317382812 l 2,52,53
 132.60546875 117.6171875 132.60546875 117.6171875 135.889648438 117.62890625 c 2,24,-1
55.0400390625 57.7998046875 m 128,-1,55
 76.248046875 57.7998046875 76.248046875 57.7998046875 91.244140625 42.8037109375 c 128,-1,56
 106.240234375 27.8076171875 106.240234375 27.8076171875 106.240234375 6.599609375 c 128,-1,57
 106.240234375 -14.607421875 106.240234375 -14.607421875 91.244140625 -29.603515625 c 128,-1,58
 76.248046875 -44.599609375 76.248046875 -44.599609375 55.0400390625 -44.599609375 c 128,-1,59
 33.83203125 -44.599609375 33.83203125 -44.599609375 18.8359375 -29.603515625 c 128,-1,60
 3.8408203125 -14.607421875 3.8408203125 -14.607421875 3.8408203125 6.599609375 c 128,-1,61
 3.8408203125 27.8076171875 3.8408203125 27.8076171875 18.8359375 42.8037109375 c 128,-1,54
 33.83203125 57.7998046875 33.83203125 57.7998046875 55.0400390625 57.7998046875 c 128,-1,55
200.959960938 57.7998046875 m 0,62,63
 222.16796875 57.7998046875 222.16796875 57.7998046875 237.1640625 42.8037109375 c 128,-1,64
 252.159179688 27.8076171875 252.159179688 27.8076171875 252.159179688 6.599609375 c 128,-1,65
 252.159179688 -14.607421875 252.159179688 -14.607421875 237.1640625 -29.603515625 c 128,-1,66
 222.16796875 -44.599609375 222.16796875 -44.599609375 200.959960938 -44.599609375 c 0,67,68
 187.05078125 -44.599609375 187.05078125 -44.599609375 175.256835938 -37.748046875 c 128,-1,69
 163.462890625 -30.896484375 163.462890625 -30.896484375 156.611328125 -19.1025390625 c 128,-1,70
 149.760742188 -7.30859375 149.760742188 -7.30859375 149.760742188 6.599609375 c 128,-1,71
 149.760742188 20.5078125 149.760742188 20.5078125 156.611328125 32.3017578125 c 128,-1,72
 163.462890625 44.0966796875 163.462890625 44.0966796875 175.256835938 50.9482421875 c 128,-1,73
 187.05078125 57.7998046875 187.05078125 57.7998046875 200.959960938 57.7998046875 c 0,62,63
55.0400390625 33.48046875 m 0,74,75
 47.7373046875 33.48046875 47.7373046875 33.48046875 41.5458984375 29.8837890625 c 128,-1,76
 35.353515625 26.2861328125 35.353515625 26.2861328125 31.7568359375 20.0947265625 c 128,-1,77
 28.16015625 13.90234375 28.16015625 13.90234375 28.16015625 6.599609375 c 0,78,79
 28.16015625 -4.53515625 28.16015625 -4.53515625 36.0322265625 -12.4072265625 c 128,-1,80
 43.9052734375 -20.2802734375 43.9052734375 -20.2802734375 55.0400390625 -20.2802734375 c 128,-1,81
 66.1748046875 -20.2802734375 66.1748046875 -20.2802734375 74.0478515625 -12.4072265625 c 128,-1,82
 81.9208984375 -4.53515625 81.9208984375 -4.53515625 81.9208984375 6.599609375 c 128,-1,83
 81.9208984375 17.734375 81.9208984375 17.734375 74.0478515625 25.607421875 c 128,-1,84
 66.1748046875 33.48046875 66.1748046875 33.48046875 55.0400390625 33.48046875 c 0,74,75
200.959960938 33.48046875 m 128,-1,86
 189.825195312 33.48046875 189.825195312 33.48046875 181.952148438 25.607421875 c 128,-1,87
 174.080078125 17.734375 174.080078125 17.734375 174.080078125 6.599609375 c 128,-1,88
 174.080078125 -4.53515625 174.080078125 -4.53515625 181.952148438 -12.4072265625 c 128,-1,89
 189.825195312 -20.2802734375 189.825195312 -20.2802734375 200.959960938 -20.2802734375 c 128,-1,90
 212.094726562 -20.2802734375 212.094726562 -20.2802734375 219.967773438 -12.4072265625 c 128,-1,91
 227.840820312 -4.53515625 227.840820312 -4.53515625 227.840820312 6.599609375 c 128,-1,92
 227.840820312 17.734375 227.840820312 17.734375 219.967773438 25.607421875 c 128,-1,85
 212.094726562 33.48046875 212.094726562 33.48046875 200.959960938 33.48046875 c 128,-1,86
EndSplineSet
EndChar

StartChar: S
Encoding: 83 83 42
Width: 256
VWidth: 0
Flags: W
LayerCount: 2
Fore
SplineSet
48 205 m 2,0,1
 28 205 28 205 14 191 c 128,-1,2
 0 177 0 177 -0 157 c 2,3,-1
 0 -3 l 2,4,5
 -0 -23 -0 -23 14 -37 c 128,-1,6
 28 -51 28 -51 48 -51 c 2,7,-1
 208 -51 l 2,8,9
 228 -51 228 -51 242 -36 c 128,-1,10
 256 -21 256 -21 256 -1 c 2,11,-1
 256 157 l 2,12,13
 256 177 256 177 242 191 c 128,-1,14
 228 205 228 205 208 205 c 2,15,-1
 48 205 l 2,0,1
108.301757812 191.290039062 m 128,-1,17
 104.5390625 201.626953125 104.5390625 201.626953125 109.237304688 203.336914062 c 128,-1,18
 113.936523438 205.046875 113.936523438 205.046875 117.698242188 194.709960938 c 128,-1,19
 121.4609375 184.373046875 121.4609375 184.373046875 116.762695312 182.663085938 c 128,-1,16
 112.063476562 180.953125 112.063476562 180.953125 108.301757812 191.290039062 c 128,-1,17
87.169921875 174.786132812 m 0,20,21
 80 183 80 183 83.9296875 186.426757812 c 128,-1,22
 88 190 88 190 94.830078125 181.213867188 c 0,23,24
 102 173 102 173 98.0703125 169.573242188 c 128,-1,25
 94 166 94 166 87.169921875 174.786132812 c 0,20,21
153.169921875 181.213867188 m 0,26,27
 160 190 160 190 164.0703125 186.426757812 c 128,-1,28
 168 183 168 183 160.830078125 174.786132812 c 0,29,30
 154 166 154 166 149.9296875 169.573242188 c 128,-1,31
 146 173 146 173 153.169921875 181.213867188 c 0,26,27
130.301757812 194.709960938 m 0,32,33
 134 205 134 205 138.762695312 203.336914062 c 0,34,35
 143 202 143 202 139.698242188 191.290039062 c 0,36,37
 136 181 136 181 131.237304688 182.663085938 c 0,38,39
 127 184 127 184 130.301757812 194.709960938 c 0,32,33
231.7578125 137.280273438 m 1,40,-1
 217.118164062 137.280273438 l 1,41,-1
 217.118164062 139.19921875 l 2,42,43
 217.118164062 142.319335938 217.118164062 142.319335938 218.557617188 145.19921875 c 128,-1,44
 219.8984375 147.879882812 219.8984375 147.879882812 224.078125 151.6796875 c 2,45,-1
 226.71875 154.080078125 l 2,46,47
 229.041015625 156.19140625 229.041015625 156.19140625 230.078125 157.918945312 c 128,-1,48
 231.3125 159.770507812 231.3125 159.770507812 231.3125 161.26953125 c 0,49,50
 231.3125 161.51953125 231.3125 161.51953125 231.278320312 161.759765625 c 0,51,52
 231.038085938 164.399414062 231.038085938 164.399414062 229.118164062 166.080078125 c 128,-1,53
 227.197265625 167.786132812 227.197265625 167.786132812 224.51953125 167.786132812 c 0,54,55
 224.184570312 167.786132812 224.184570312 167.786132812 223.837890625 167.759765625 c 128,-1,56
 223.415039062 167.731445312 223.415039062 167.731445312 216.637695312 166.319335938 c 0,57,58
 208.71875 164.668945312 208.71875 164.668945312 208.71875 162.240234375 c 2,59,-1
 208.71875 174.958984375 l 2,60,61
 208.890625 174.900390625 208.890625 174.900390625 217.837890625 177.48046875 c 0,62,63
 221.4609375 178.319335938 221.4609375 178.319335938 225.518554688 178.319335938 c 0,64,65
 235.877929688 178.319335938 235.877929688 178.319335938 240.637695312 174.240234375 c 0,66,67
 245.197265625 170.399414062 245.197265625 170.399414062 245.677734375 162.48046875 c 0,68,69
 245.70703125 161.96875 245.70703125 161.96875 245.70703125 161.478515625 c 0,70,71
 245.70703125 158.040039062 245.70703125 158.040039062 244.23828125 155.51953125 c 0,72,73
 242.638671875 152.719726562 242.638671875 152.719726562 238.71875 148.799804688 c 2,74,-1
 236.318359375 146.399414062 l 2,75,76
 233.038085938 143.119140625 233.038085938 143.119140625 232.71875 142.559570312 c 0,77,78
 231.7578125 140.879882812 231.7578125 140.879882812 231.7578125 138.958984375 c 2,79,-1
 231.7578125 137.280273438 l 1,40,-1
217.118164062 131.280273438 m 1,80,-1
 231.7578125 131.280273438 l 1,81,-1
 231.7578125 116.879882812 l 1,82,-1
 217.118164062 116.879882812 l 1,83,-1
 217.118164062 131.280273438 l 1,80,-1
97 82 m 9,84,85
 101 128 101 128 102 132 c 0,86,87
 105 143 105 143 117 143 c 128,-1,88
 129 143 129 143 129 137 c 2,89,-1
 129 123 l 1,90,-1
 141 123 l 1,91,-1
 149 131 l 1,92,-1
 157 132 l 1,93,-1
 160 125 l 1,94,-1
 158 123 l 1,95,-1
 202 26 l 1,96,-1
 200 25 l 1,97,-1
 156 120 l 1,98,99
 148 112 148 112 146 112 c 2,100,-1
 128 112 l 1,101,-1
 128 97 l 1,102,-1
 144 97 l 2,103,104
 144 96 144 96 145 96 c 128,-1,105
 146 96 146 96 147 94 c 0,106,107
 148 90 148 90 148 89 c 0,108,109
 146 84 146 84 144 84 c 0,110,111
 140.894736842 84 140.894736842 84 141 85 c 2,112,-1
 139 66 l 1,113,114
 150 51 150 51 152 50 c 2,115,-1
 152 6 l 1,116,-1
 161 5 l 1,117,-1
 164 -3 l 1,118,-1
 242 -3 l 2,119,120
 243 -3 243 -3 251 2 c 1,121,122
 248.041450777 -6.87564766839 248.041450777 -6.87564766839 244 -7 c 2,123,-1
 179 -9 l 1,124,-1
 179 -10 l 2,125,126
 179 -18 179 -18 170 -20 c 0,127,128
 166 -21 166 -21 128 -21 c 1,129,-1
 127 -30 l 1,130,-1
 124 -30 l 1,131,-1
 125 -21 l 1,132,-1
 4 -21 l 1,133,-1
 4 -17 l 1,134,-1
 73 -17 l 1,135,-1
 63 -3 l 1,136,-1
 103 32 l 1,137,-1
 103 65 l 1,138,139
 97 67 97 67 97 70 c 2,140,-1
 97 82 l 9,84,85
127 86 m 1,141,-1
 125 83 l 1,142,143
 131 76 131 76 136 70 c 1,144,-1
 138 85 l 1,145,-1
 127 86 l 1,141,-1
123 63 m 1,146,147
 122.0125 28.4375 122.0125 28.4375 120 27 c 2,148,-1
 85 2 l 1,149,-1
 89 -5 l 1,150,-1
 127 -5 l 1,151,-1
 134 50 l 1,152,-1
 123 63 l 1,146,147
136 47 m 1,153,-1
 130 -5 l 1,154,-1
 132 -5 l 1,155,-1
 135 -5 l 1,156,-1
 134 -2 l 1,157,-1
 139 43 l 1,158,-1
 136 47 l 1,153,-1
178 -9 m 1,159,160
 154 -9 154 -9 129 -10 c 1,161,-1
 129 -16 l 1,162,-1
 146 -16 l 2,163,164
 177 -16 177 -16 178 -9 c 1,159,160
126 -10 m 1,165,-1
 126 -16 l 1,166,167
 109 -16 109 -16 80 -17 c 1,168,-1
 83 -10 l 1,169,-1
 96 -10 l 1,170,-1
 126 -10 l 1,165,-1
110 160.5 m 128,-1,172
 110 177 110 177 126 177 c 128,-1,173
 142 177 142 177 142 160.25 c 0,174,175
 142 144 142 144 125.5 144.25 c 0,176,171
 110 144 110 144 110 160.5 c 128,-1,172
EndSplineSet
EndChar
